<?xml version="1.0" encoding="utf-8" standalone="no"?>
<!DOCTYPE svg PUBLIC "-//W3C//DTD SVG 1.1//EN"
  "http://www.w3.org/Graphics/SVG/1.1/DTD/svg11.dtd">
<svg xmlns:xlink="http://www.w3.org/1999/xlink" width="432pt" height="288pt" viewBox="0 0 432 288" xmlns="http://www.w3.org/2000/svg" version="1.1">
 <metadata>
  <rdf:RDF xmlns:dc="http://purl.org/dc/elements/1.1/" xmlns:cc="http://creativecommons.org/ns#" xmlns:rdf="http://www.w3.org/1999/02/22-rdf-syntax-ns#">
   <cc:Work>
    <dc:type rdf:resource="http://purl.org/dc/dcmitype/StillImage"/>
    <dc:date>2023-10-25T16:19:21.673950</dc:date>
    <dc:format>image/svg+xml</dc:format>
    <dc:creator>
     <cc:Agent>
      <dc:title>Matplotlib v3.7.2, https://matplotlib.org/</dc:title>
     </cc:Agent>
    </dc:creator>
   </cc:Work>
  </rdf:RDF>
 </metadata>
 <defs>
  <style type="text/css">*{stroke-linejoin: round; stroke-linecap: butt}</style>
 </defs>
 <g id="figure_1">
  <g id="patch_1">
   <path d="M 0 288 
L 432 288 
L 432 0 
L 0 0 
z
" style="fill: #ffffff"/>
  </g>
  <g id="axes_1">
   <g id="patch_2">
    <path d="M 130.990093 82.400563 
L 131.002068 82.393789 
L 131.003356 82.395796 
L 211.355356 60.651796 
L 211.356644 60.653804 
L 131.004644 82.397804 
L 131.005932 82.399811 
z
" clip-path="url(#pc5b1ae860a)" style="fill: #1f77b4; stroke: #000000; stroke-linejoin: miter"/>
   </g>
   <g id="patch_3">
    <path d="M 291.721907 82.400563 
L 291.706068 82.399811 
L 291.707356 82.397804 
L 211.355356 60.653804 
L 211.356644 60.651796 
L 291.708644 82.395796 
L 291.709932 82.393789 
z
" clip-path="url(#pc5b1ae860a)" style="fill: #1f77b4; stroke: #000000; stroke-linejoin: miter"/>
   </g>
   <g id="patch_4">
    <path d="M 90.819643 130.241741 
L 90.823821 130.231791 
L 90.826607 130.232997 
L 131.002607 91.093797 
L 131.005393 91.095003 
L 90.829393 130.234203 
L 90.832179 130.235409 
z
" clip-path="url(#pc5b1ae860a)" style="fill: #1f77b4; stroke: #000000; stroke-linejoin: miter"/>
   </g>
   <g id="patch_5">
    <path d="M 164.490119 130.242541 
L 164.479411 130.234925 
L 164.48247 130.234042 
L 137.69847 91.094842 
L 137.70153 91.093958 
L 164.48553 130.233158 
L 164.488589 130.232275 
z
" clip-path="url(#pc5b1ae860a)" style="fill: #1f77b4; stroke: #000000; stroke-linejoin: miter"/>
   </g>
   <g id="patch_6">
    <path d="M 244.827643 130.241741 
L 244.831821 130.231791 
L 244.834607 130.232997 
L 285.010607 91.093797 
L 285.013393 91.095003 
L 244.837393 130.234203 
L 244.840179 130.235409 
z
" clip-path="url(#pc5b1ae860a)" style="fill: #1f77b4; stroke: #000000; stroke-linejoin: miter"/>
   </g>
   <g id="patch_7">
    <path d="M 325.195317 130.242153 
L 325.18361 130.235184 
L 325.186537 130.234128 
L 291.706537 91.094928 
L 291.709463 91.093872 
L 325.189463 130.233072 
L 325.19239 130.232016 
z
" clip-path="url(#pc5b1ae860a)" style="fill: #1f77b4; stroke: #000000; stroke-linejoin: miter"/>
   </g>
   <g id="patch_8">
    <path d="M 43.949613 194.387262 
L 43.951452 194.377017 
L 43.954484 194.377939 
L 80.782484 143.279539 
L 80.785516 143.280461 
L 43.957516 194.378861 
L 43.960548 194.379783 
z
" clip-path="url(#pc5b1ae860a)" style="fill: #1f77b4; stroke: #000000; stroke-linejoin: miter"/>
   </g>
   <g id="patch_9">
    <path d="M 110.920664 190.038904 
L 110.911225 190.03061 
L 110.914408 190.029937 
L 87.478408 143.280337 
L 87.481592 143.279663 
L 110.917592 190.029263 
L 110.920775 190.02859 
z
" clip-path="url(#pc5b1ae860a)" style="fill: #1f77b4; stroke: #000000; stroke-linejoin: miter"/>
   </g>
   <g id="patch_10">
    <path d="M 154.437588 183.516059 
L 154.435043 183.505878 
L 154.438348 183.506226 
L 164.482348 143.279826 
L 164.485652 143.280174 
L 154.441652 183.506574 
L 154.444957 183.506922 
z
" clip-path="url(#pc5b1ae860a)" style="fill: #1f77b4; stroke: #000000; stroke-linejoin: miter"/>
   </g>
   <g id="patch_11">
    <path d="M 191.273014 180.254027 
L 191.263264 180.245886 
L 191.266421 180.245162 
L 171.178421 143.280362 
L 171.181579 143.279638 
L 191.269579 180.244438 
L 191.272736 180.243714 
z
" clip-path="url(#pc5b1ae860a)" style="fill: #1f77b4; stroke: #000000; stroke-linejoin: miter"/>
   </g>
   <g id="patch_12">
    <path d="M 218.047352 183.515708 
L 218.047223 183.505394 
L 218.050408 183.506065 
L 238.138408 143.279665 
L 238.141592 143.280335 
L 218.053592 183.506735 
L 218.056777 183.507406 
z
" clip-path="url(#pc5b1ae860a)" style="fill: #1f77b4; stroke: #000000; stroke-linejoin: miter"/>
   </g>
   <g id="patch_13">
    <path d="M 271.62598 183.515381 
L 271.615391 183.507695 
L 271.618464 183.506832 
L 244.834464 143.280432 
L 244.837536 143.279568 
L 271.621536 183.505968 
L 271.624609 183.505105 
z
" clip-path="url(#pc5b1ae860a)" style="fill: #1f77b4; stroke: #000000; stroke-linejoin: miter"/>
   </g>
   <g id="patch_14">
    <path d="M 315.142381 183.516128 
L 315.139007 183.506049 
L 315.142336 183.506283 
L 321.838336 143.279883 
L 321.841664 143.280117 
L 315.145664 183.506517 
L 315.148993 183.506751 
z
" clip-path="url(#pc5b1ae860a)" style="fill: #1f77b4; stroke: #000000; stroke-linejoin: miter"/>
   </g>
   <g id="patch_15">
    <path d="M 358.675049 180.253448 
L 358.663562 180.246326 
L 358.666521 180.245309 
L 328.534521 143.280509 
L 328.537479 143.279491 
L 358.669479 180.244291 
L 358.672438 180.243274 
z
" clip-path="url(#pc5b1ae860a)" style="fill: #1f77b4; stroke: #000000; stroke-linejoin: miter"/>
   </g>
   <g id="text_1">
    <g id="patch_16">
     <path d="M 191.6052 60.518939 
L 229.1823 60.518939 
L 229.1823 48.893705 
L 191.6052 48.893705 
z
" style="fill: #ffffff; stroke: #000000; stroke-linejoin: miter"/>
    </g>
    <!-- $X_0 &lt; -54.5$ -->
    <g transform="translate(194.616 56.304) scale(0.0579 -0.0579)">
     <defs>
      <path id="DejaVuSans-Oblique-58" d="M 878 4666 
L 1516 4666 
L 2316 2981 
L 3763 4666 
L 4500 4666 
L 2578 2438 
L 3738 0 
L 3103 0 
L 2163 1966 
L 459 0 
L -275 0 
L 1906 2509 
L 878 4666 
z
" transform="scale(0.015625)"/>
      <path id="DejaVuSans-30" d="M 2034 4250 
Q 1547 4250 1301 3770 
Q 1056 3291 1056 2328 
Q 1056 1369 1301 889 
Q 1547 409 2034 409 
Q 2525 409 2770 889 
Q 3016 1369 3016 2328 
Q 3016 3291 2770 3770 
Q 2525 4250 2034 4250 
z
M 2034 4750 
Q 2819 4750 3233 4129 
Q 3647 3509 3647 2328 
Q 3647 1150 3233 529 
Q 2819 -91 2034 -91 
Q 1250 -91 836 529 
Q 422 1150 422 2328 
Q 422 3509 836 4129 
Q 1250 4750 2034 4750 
z
" transform="scale(0.015625)"/>
      <path id="DejaVuSans-3c" d="M 4684 3150 
L 1459 2003 
L 4684 863 
L 4684 294 
L 678 1747 
L 678 2266 
L 4684 3719 
L 4684 3150 
z
" transform="scale(0.015625)"/>
      <path id="DejaVuSans-2212" d="M 678 2272 
L 4684 2272 
L 4684 1741 
L 678 1741 
L 678 2272 
z
" transform="scale(0.015625)"/>
      <path id="DejaVuSans-35" d="M 691 4666 
L 3169 4666 
L 3169 4134 
L 1269 4134 
L 1269 2991 
Q 1406 3038 1543 3061 
Q 1681 3084 1819 3084 
Q 2600 3084 3056 2656 
Q 3513 2228 3513 1497 
Q 3513 744 3044 326 
Q 2575 -91 1722 -91 
Q 1428 -91 1123 -41 
Q 819 9 494 109 
L 494 744 
Q 775 591 1075 516 
Q 1375 441 1709 441 
Q 2250 441 2565 725 
Q 2881 1009 2881 1497 
Q 2881 1984 2565 2268 
Q 2250 2553 1709 2553 
Q 1456 2553 1204 2497 
Q 953 2441 691 2322 
L 691 4666 
z
" transform="scale(0.015625)"/>
      <path id="DejaVuSans-34" d="M 2419 4116 
L 825 1625 
L 2419 1625 
L 2419 4116 
z
M 2253 4666 
L 3047 4666 
L 3047 1625 
L 3713 1625 
L 3713 1100 
L 3047 1100 
L 3047 0 
L 2419 0 
L 2419 1100 
L 313 1100 
L 313 1709 
L 2253 4666 
z
" transform="scale(0.015625)"/>
      <path id="DejaVuSans-2e" d="M 684 794 
L 1344 794 
L 1344 0 
L 684 0 
L 684 794 
z
" transform="scale(0.015625)"/>
     </defs>
     <use xlink:href="#DejaVuSans-Oblique-58" transform="translate(0 0.09375)"/>
     <use xlink:href="#DejaVuSans-30" transform="translate(68.505859 -16.3125) scale(0.7)"/>
     <use xlink:href="#DejaVuSans-3c" transform="translate(135.258789 0.09375)"/>
     <use xlink:href="#DejaVuSans-2212" transform="translate(238.530273 0.09375)"/>
     <use xlink:href="#DejaVuSans-35" transform="translate(322.319336 0.09375)"/>
     <use xlink:href="#DejaVuSans-34" transform="translate(385.942383 0.09375)"/>
     <use xlink:href="#DejaVuSans-2e" transform="translate(449.56543 0.09375)"/>
     <use xlink:href="#DejaVuSans-35" transform="translate(481.352539 0.09375)"/>
    </g>
   </g>
   <g id="text_2">
    <g id="patch_17">
     <path d="M 116.2752 92.047739 
L 153.5628 92.047739 
L 153.5628 80.422505 
L 116.2752 80.422505 
z
" style="fill: #ffffff; stroke: #000000; stroke-linejoin: miter"/>
    </g>
    <!-- $X_4 &lt; -59.5$ -->
    <g transform="translate(119.286 87.8328) scale(0.0579 -0.0579)">
     <defs>
      <path id="DejaVuSans-39" d="M 703 97 
L 703 672 
Q 941 559 1184 500 
Q 1428 441 1663 441 
Q 2288 441 2617 861 
Q 2947 1281 2994 2138 
Q 2813 1869 2534 1725 
Q 2256 1581 1919 1581 
Q 1219 1581 811 2004 
Q 403 2428 403 3163 
Q 403 3881 828 4315 
Q 1253 4750 1959 4750 
Q 2769 4750 3195 4129 
Q 3622 3509 3622 2328 
Q 3622 1225 3098 567 
Q 2575 -91 1691 -91 
Q 1453 -91 1209 -44 
Q 966 3 703 97 
z
M 1959 2075 
Q 2384 2075 2632 2365 
Q 2881 2656 2881 3163 
Q 2881 3666 2632 3958 
Q 2384 4250 1959 4250 
Q 1534 4250 1286 3958 
Q 1038 3666 1038 3163 
Q 1038 2656 1286 2365 
Q 1534 2075 1959 2075 
z
" transform="scale(0.015625)"/>
     </defs>
     <use xlink:href="#DejaVuSans-Oblique-58" transform="translate(0 0.78125)"/>
     <use xlink:href="#DejaVuSans-34" transform="translate(68.505859 -15.625) scale(0.7)"/>
     <use xlink:href="#DejaVuSans-3c" transform="translate(135.258789 0.78125)"/>
     <use xlink:href="#DejaVuSans-2212" transform="translate(238.530273 0.78125)"/>
     <use xlink:href="#DejaVuSans-35" transform="translate(322.319336 0.78125)"/>
     <use xlink:href="#DejaVuSans-39" transform="translate(380.442383 0.78125)"/>
     <use xlink:href="#DejaVuSans-2e" transform="translate(444.06543 0.78125)"/>
     <use xlink:href="#DejaVuSans-35" transform="translate(475.852539 0.78125)"/>
    </g>
   </g>
   <g id="text_3">
    <g id="patch_18">
     <path d="M 266.9352 92.047739 
L 304.5123 92.047739 
L 304.5123 80.422505 
L 266.9352 80.422505 
z
" style="fill: #ffffff; stroke: #000000; stroke-linejoin: miter"/>
    </g>
    <!-- $X_0 &lt; -44.5$ -->
    <g transform="translate(269.946 87.8328) scale(0.0579 -0.0579)">
     <use xlink:href="#DejaVuSans-Oblique-58" transform="translate(0 0.09375)"/>
     <use xlink:href="#DejaVuSans-30" transform="translate(68.505859 -16.3125) scale(0.7)"/>
     <use xlink:href="#DejaVuSans-3c" transform="translate(135.258789 0.09375)"/>
     <use xlink:href="#DejaVuSans-2212" transform="translate(238.530273 0.09375)"/>
     <use xlink:href="#DejaVuSans-34" transform="translate(322.319336 0.09375)"/>
     <use xlink:href="#DejaVuSans-34" transform="translate(385.942383 0.09375)"/>
     <use xlink:href="#DejaVuSans-2e" transform="translate(449.56543 0.09375)"/>
     <use xlink:href="#DejaVuSans-35" transform="translate(481.352539 0.09375)"/>
    </g>
   </g>
   <g id="text_4">
    <g id="patch_19">
     <path d="M 67.7292 143.146139 
L 105.3063 143.146139 
L 105.3063 131.520905 
L 67.7292 131.520905 
z
" style="fill: #ffffff; stroke: #000000; stroke-linejoin: miter"/>
    </g>
    <!-- $X_3 &lt; -55.5$ -->
    <g transform="translate(70.74 138.9312) scale(0.0579 -0.0579)">
     <defs>
      <path id="DejaVuSans-33" d="M 2597 2516 
Q 3050 2419 3304 2112 
Q 3559 1806 3559 1356 
Q 3559 666 3084 287 
Q 2609 -91 1734 -91 
Q 1441 -91 1130 -33 
Q 819 25 488 141 
L 488 750 
Q 750 597 1062 519 
Q 1375 441 1716 441 
Q 2309 441 2620 675 
Q 2931 909 2931 1356 
Q 2931 1769 2642 2001 
Q 2353 2234 1838 2234 
L 1294 2234 
L 1294 2753 
L 1863 2753 
Q 2328 2753 2575 2939 
Q 2822 3125 2822 3475 
Q 2822 3834 2567 4026 
Q 2313 4219 1838 4219 
Q 1578 4219 1281 4162 
Q 984 4106 628 3988 
L 628 4550 
Q 988 4650 1302 4700 
Q 1616 4750 1894 4750 
Q 2613 4750 3031 4423 
Q 3450 4097 3450 3541 
Q 3450 3153 3228 2886 
Q 3006 2619 2597 2516 
z
" transform="scale(0.015625)"/>
     </defs>
     <use xlink:href="#DejaVuSans-Oblique-58" transform="translate(0 0.09375)"/>
     <use xlink:href="#DejaVuSans-33" transform="translate(68.505859 -16.3125) scale(0.7)"/>
     <use xlink:href="#DejaVuSans-3c" transform="translate(135.258789 0.09375)"/>
     <use xlink:href="#DejaVuSans-2212" transform="translate(238.530273 0.09375)"/>
     <use xlink:href="#DejaVuSans-35" transform="translate(322.319336 0.09375)"/>
     <use xlink:href="#DejaVuSans-35" transform="translate(385.942383 0.09375)"/>
     <use xlink:href="#DejaVuSans-2e" transform="translate(449.56543 0.09375)"/>
     <use xlink:href="#DejaVuSans-35" transform="translate(481.352539 0.09375)"/>
    </g>
   </g>
   <g id="text_5">
    <g id="patch_20">
     <path d="M 144.7332 143.146139 
L 182.3103 143.146139 
L 182.3103 131.520905 
L 144.7332 131.520905 
z
" style="fill: #ffffff; stroke: #000000; stroke-linejoin: miter"/>
    </g>
    <!-- $X_4 &lt; -56.5$ -->
    <g transform="translate(147.744 138.9312) scale(0.0579 -0.0579)">
     <defs>
      <path id="DejaVuSans-36" d="M 2113 2584 
Q 1688 2584 1439 2293 
Q 1191 2003 1191 1497 
Q 1191 994 1439 701 
Q 1688 409 2113 409 
Q 2538 409 2786 701 
Q 3034 994 3034 1497 
Q 3034 2003 2786 2293 
Q 2538 2584 2113 2584 
z
M 3366 4563 
L 3366 3988 
Q 3128 4100 2886 4159 
Q 2644 4219 2406 4219 
Q 1781 4219 1451 3797 
Q 1122 3375 1075 2522 
Q 1259 2794 1537 2939 
Q 1816 3084 2150 3084 
Q 2853 3084 3261 2657 
Q 3669 2231 3669 1497 
Q 3669 778 3244 343 
Q 2819 -91 2113 -91 
Q 1303 -91 875 529 
Q 447 1150 447 2328 
Q 447 3434 972 4092 
Q 1497 4750 2381 4750 
Q 2619 4750 2861 4703 
Q 3103 4656 3366 4563 
z
" transform="scale(0.015625)"/>
     </defs>
     <use xlink:href="#DejaVuSans-Oblique-58" transform="translate(0 0.78125)"/>
     <use xlink:href="#DejaVuSans-34" transform="translate(68.505859 -15.625) scale(0.7)"/>
     <use xlink:href="#DejaVuSans-3c" transform="translate(135.258789 0.78125)"/>
     <use xlink:href="#DejaVuSans-2212" transform="translate(238.530273 0.78125)"/>
     <use xlink:href="#DejaVuSans-35" transform="translate(322.319336 0.78125)"/>
     <use xlink:href="#DejaVuSans-36" transform="translate(385.942383 0.78125)"/>
     <use xlink:href="#DejaVuSans-2e" transform="translate(449.56543 0.78125)"/>
     <use xlink:href="#DejaVuSans-35" transform="translate(481.352539 0.78125)"/>
    </g>
   </g>
   <g id="text_6">
    <g id="patch_21">
     <path d="M 225.0852 143.146139 
L 262.6623 143.146139 
L 262.6623 131.520905 
L 225.0852 131.520905 
z
" style="fill: #ffffff; stroke: #000000; stroke-linejoin: miter"/>
    </g>
    <!-- $X_4 &lt; -70.5$ -->
    <g transform="translate(228.096 138.9312) scale(0.0579 -0.0579)">
     <defs>
      <path id="DejaVuSans-37" d="M 525 4666 
L 3525 4666 
L 3525 4397 
L 1831 0 
L 1172 0 
L 2766 4134 
L 525 4134 
L 525 4666 
z
" transform="scale(0.015625)"/>
     </defs>
     <use xlink:href="#DejaVuSans-Oblique-58" transform="translate(0 0.78125)"/>
     <use xlink:href="#DejaVuSans-34" transform="translate(68.505859 -15.625) scale(0.7)"/>
     <use xlink:href="#DejaVuSans-3c" transform="translate(135.258789 0.78125)"/>
     <use xlink:href="#DejaVuSans-2212" transform="translate(238.530273 0.78125)"/>
     <use xlink:href="#DejaVuSans-37" transform="translate(322.319336 0.78125)"/>
     <use xlink:href="#DejaVuSans-30" transform="translate(385.942383 0.78125)"/>
     <use xlink:href="#DejaVuSans-2e" transform="translate(449.56543 0.78125)"/>
     <use xlink:href="#DejaVuSans-35" transform="translate(481.352539 0.78125)"/>
    </g>
   </g>
   <g id="text_7">
    <g id="patch_22">
     <path d="M 308.7852 143.146139 
L 346.3623 143.146139 
L 346.3623 131.520905 
L 308.7852 131.520905 
z
" style="fill: #ffffff; stroke: #000000; stroke-linejoin: miter"/>
    </g>
    <!-- $X_3 &lt; -47.5$ -->
    <g transform="translate(311.796 138.9312) scale(0.0579 -0.0579)">
     <use xlink:href="#DejaVuSans-Oblique-58" transform="translate(0 0.09375)"/>
     <use xlink:href="#DejaVuSans-33" transform="translate(68.505859 -16.3125) scale(0.7)"/>
     <use xlink:href="#DejaVuSans-3c" transform="translate(135.258789 0.09375)"/>
     <use xlink:href="#DejaVuSans-2212" transform="translate(238.530273 0.09375)"/>
     <use xlink:href="#DejaVuSans-34" transform="translate(322.319336 0.09375)"/>
     <use xlink:href="#DejaVuSans-37" transform="translate(385.942383 0.09375)"/>
     <use xlink:href="#DejaVuSans-2e" transform="translate(449.56543 0.09375)"/>
     <use xlink:href="#DejaVuSans-35" transform="translate(481.352539 0.09375)"/>
    </g>
   </g>
   <g id="text_8">
    <g id="patch_23">
     <path d="M 34.2492 192.070139 
L 71.8263 192.070139 
L 71.8263 180.444905 
L 34.2492 180.444905 
z
" style="fill: #ffffff; stroke: #000000; stroke-linejoin: miter"/>
    </g>
    <!-- $X_2 &lt; -55.5$ -->
    <g transform="translate(37.26 187.8552) scale(0.0579 -0.0579)">
     <defs>
      <path id="DejaVuSans-32" d="M 1228 531 
L 3431 531 
L 3431 0 
L 469 0 
L 469 531 
Q 828 903 1448 1529 
Q 2069 2156 2228 2338 
Q 2531 2678 2651 2914 
Q 2772 3150 2772 3378 
Q 2772 3750 2511 3984 
Q 2250 4219 1831 4219 
Q 1534 4219 1204 4116 
Q 875 4013 500 3803 
L 500 4441 
Q 881 4594 1212 4672 
Q 1544 4750 1819 4750 
Q 2544 4750 2975 4387 
Q 3406 4025 3406 3419 
Q 3406 3131 3298 2873 
Q 3191 2616 2906 2266 
Q 2828 2175 2409 1742 
Q 1991 1309 1228 531 
z
" transform="scale(0.015625)"/>
     </defs>
     <use xlink:href="#DejaVuSans-Oblique-58" transform="translate(0 0.09375)"/>
     <use xlink:href="#DejaVuSans-32" transform="translate(68.505859 -16.3125) scale(0.7)"/>
     <use xlink:href="#DejaVuSans-3c" transform="translate(135.258789 0.09375)"/>
     <use xlink:href="#DejaVuSans-2212" transform="translate(238.530273 0.09375)"/>
     <use xlink:href="#DejaVuSans-35" transform="translate(322.319336 0.09375)"/>
     <use xlink:href="#DejaVuSans-35" transform="translate(385.942383 0.09375)"/>
     <use xlink:href="#DejaVuSans-2e" transform="translate(449.56543 0.09375)"/>
     <use xlink:href="#DejaVuSans-35" transform="translate(481.352539 0.09375)"/>
    </g>
   </g>
   <g id="text_9">
    <g id="patch_24">
     <path d="M 49.9748 224.852503 
L 60.230819 224.852503 
L 60.230819 194.542921 
L 49.9748 194.542921 
z
" style="fill: #ffffff"/>
    </g>
    <!-- . -->
    <g transform="translate(54 203.841436) scale(0.0694 -0.0694)">
     <defs>
      <path id="DejaVuSans-Oblique-2e" d="M 525 794 
L 1184 794 
L 1031 0 
L 372 0 
L 525 794 
z
" transform="scale(0.015625)"/>
     </defs>
     <use xlink:href="#DejaVuSans-Oblique-2e"/>
    </g>
    <!-- . -->
    <g transform="translate(54 211.612718) scale(0.0694 -0.0694)">
     <use xlink:href="#DejaVuSans-Oblique-2e"/>
    </g>
    <!-- . -->
    <g transform="translate(54 219.384) scale(0.0694 -0.0694)">
     <use xlink:href="#DejaVuSans-Oblique-2e"/>
    </g>
   </g>
   <g id="text_10">
    <g id="patch_25">
     <path d="M 84.4692 192.070139 
L 122.0463 192.070139 
L 122.0463 180.444905 
L 84.4692 180.444905 
z
" style="fill: #ffffff; stroke: #000000; stroke-linejoin: miter"/>
    </g>
    <!-- $X_1 &lt; -50.5$ -->
    <g transform="translate(87.48 187.8552) scale(0.0579 -0.0579)">
     <defs>
      <path id="DejaVuSans-31" d="M 794 531 
L 1825 531 
L 1825 4091 
L 703 3866 
L 703 4441 
L 1819 4666 
L 2450 4666 
L 2450 531 
L 3481 531 
L 3481 0 
L 794 0 
L 794 531 
z
" transform="scale(0.015625)"/>
     </defs>
     <use xlink:href="#DejaVuSans-Oblique-58" transform="translate(0 0.78125)"/>
     <use xlink:href="#DejaVuSans-31" transform="translate(68.505859 -15.625) scale(0.7)"/>
     <use xlink:href="#DejaVuSans-3c" transform="translate(135.258789 0.78125)"/>
     <use xlink:href="#DejaVuSans-2212" transform="translate(238.530273 0.78125)"/>
     <use xlink:href="#DejaVuSans-35" transform="translate(322.319336 0.78125)"/>
     <use xlink:href="#DejaVuSans-30" transform="translate(385.942383 0.78125)"/>
     <use xlink:href="#DejaVuSans-2e" transform="translate(449.56543 0.78125)"/>
     <use xlink:href="#DejaVuSans-35" transform="translate(481.352539 0.78125)"/>
    </g>
   </g>
   <g id="text_11">
    <g id="patch_26">
     <path d="M 100.1948 224.852503 
L 110.450819 224.852503 
L 110.450819 194.542921 
L 100.1948 194.542921 
z
" style="fill: #ffffff"/>
    </g>
    <!-- . -->
    <g transform="translate(104.22 203.841436) scale(0.0694 -0.0694)">
     <use xlink:href="#DejaVuSans-Oblique-2e"/>
    </g>
    <!-- . -->
    <g transform="translate(104.22 211.612718) scale(0.0694 -0.0694)">
     <use xlink:href="#DejaVuSans-Oblique-2e"/>
    </g>
    <!-- . -->
    <g transform="translate(104.22 219.384) scale(0.0694 -0.0694)">
     <use xlink:href="#DejaVuSans-Oblique-2e"/>
    </g>
   </g>
   <g id="text_12">
    <g id="patch_27">
     <path d="M 134.6892 192.070139 
L 172.2663 192.070139 
L 172.2663 180.444905 
L 134.6892 180.444905 
z
" style="fill: #ffffff; stroke: #000000; stroke-linejoin: miter"/>
    </g>
    <!-- $X_3 &lt; -58.5$ -->
    <g transform="translate(137.7 187.8552) scale(0.0579 -0.0579)">
     <defs>
      <path id="DejaVuSans-38" d="M 2034 2216 
Q 1584 2216 1326 1975 
Q 1069 1734 1069 1313 
Q 1069 891 1326 650 
Q 1584 409 2034 409 
Q 2484 409 2743 651 
Q 3003 894 3003 1313 
Q 3003 1734 2745 1975 
Q 2488 2216 2034 2216 
z
M 1403 2484 
Q 997 2584 770 2862 
Q 544 3141 544 3541 
Q 544 4100 942 4425 
Q 1341 4750 2034 4750 
Q 2731 4750 3128 4425 
Q 3525 4100 3525 3541 
Q 3525 3141 3298 2862 
Q 3072 2584 2669 2484 
Q 3125 2378 3379 2068 
Q 3634 1759 3634 1313 
Q 3634 634 3220 271 
Q 2806 -91 2034 -91 
Q 1263 -91 848 271 
Q 434 634 434 1313 
Q 434 1759 690 2068 
Q 947 2378 1403 2484 
z
M 1172 3481 
Q 1172 3119 1398 2916 
Q 1625 2713 2034 2713 
Q 2441 2713 2670 2916 
Q 2900 3119 2900 3481 
Q 2900 3844 2670 4047 
Q 2441 4250 2034 4250 
Q 1625 4250 1398 4047 
Q 1172 3844 1172 3481 
z
" transform="scale(0.015625)"/>
     </defs>
     <use xlink:href="#DejaVuSans-Oblique-58" transform="translate(0 0.78125)"/>
     <use xlink:href="#DejaVuSans-33" transform="translate(68.505859 -15.625) scale(0.7)"/>
     <use xlink:href="#DejaVuSans-3c" transform="translate(135.258789 0.78125)"/>
     <use xlink:href="#DejaVuSans-2212" transform="translate(238.530273 0.78125)"/>
     <use xlink:href="#DejaVuSans-35" transform="translate(322.319336 0.78125)"/>
     <use xlink:href="#DejaVuSans-38" transform="translate(385.942383 0.78125)"/>
     <use xlink:href="#DejaVuSans-2e" transform="translate(449.56543 0.78125)"/>
     <use xlink:href="#DejaVuSans-35" transform="translate(481.352539 0.78125)"/>
    </g>
   </g>
   <g id="text_13">
    <g id="patch_28">
     <path d="M 150.4148 224.852503 
L 160.670819 224.852503 
L 160.670819 194.542921 
L 150.4148 194.542921 
z
" style="fill: #ffffff"/>
    </g>
    <!-- . -->
    <g transform="translate(154.44 203.841436) scale(0.0694 -0.0694)">
     <use xlink:href="#DejaVuSans-Oblique-2e"/>
    </g>
    <!-- . -->
    <g transform="translate(154.44 211.612718) scale(0.0694 -0.0694)">
     <use xlink:href="#DejaVuSans-Oblique-2e"/>
    </g>
    <!-- . -->
    <g transform="translate(154.44 219.384) scale(0.0694 -0.0694)">
     <use xlink:href="#DejaVuSans-Oblique-2e"/>
    </g>
   </g>
   <g id="text_14">
    <g id="patch_29">
     <path d="M 187.92 191.954339 
L 194.6364 191.954339 
Q 197.5314 191.954339 197.5314 189.059339 
L 197.5314 183.455705 
Q 197.5314 180.560705 194.6364 180.560705 
L 187.92 180.560705 
Q 185.025 180.560705 185.025 183.455705 
L 185.025 189.059339 
Q 185.025 191.954339 187.92 191.954339 
z
" style="fill: #008000; opacity: 0.5; stroke: #000000; stroke-linejoin: miter"/>
    </g>
    <!-- $X_4$ -->
    <g transform="translate(187.92 187.8552) scale(0.0579 -0.0579)">
     <use xlink:href="#DejaVuSans-Oblique-58" transform="translate(0 0.09375)"/>
     <use xlink:href="#DejaVuSans-34" transform="translate(68.505859 -16.3125) scale(0.7)"/>
    </g>
   </g>
   <g id="text_15">
    <g id="patch_30">
     <path d="M 201.6492 192.070139 
L 239.2263 192.070139 
L 239.2263 180.444905 
L 201.6492 180.444905 
z
" style="fill: #ffffff; stroke: #000000; stroke-linejoin: miter"/>
    </g>
    <!-- $X_3 &lt; -48.5$ -->
    <g transform="translate(204.66 187.8552) scale(0.0579 -0.0579)">
     <use xlink:href="#DejaVuSans-Oblique-58" transform="translate(0 0.78125)"/>
     <use xlink:href="#DejaVuSans-33" transform="translate(68.505859 -15.625) scale(0.7)"/>
     <use xlink:href="#DejaVuSans-3c" transform="translate(135.258789 0.78125)"/>
     <use xlink:href="#DejaVuSans-2212" transform="translate(238.530273 0.78125)"/>
     <use xlink:href="#DejaVuSans-34" transform="translate(322.319336 0.78125)"/>
     <use xlink:href="#DejaVuSans-38" transform="translate(385.942383 0.78125)"/>
     <use xlink:href="#DejaVuSans-2e" transform="translate(449.56543 0.78125)"/>
     <use xlink:href="#DejaVuSans-35" transform="translate(481.352539 0.78125)"/>
    </g>
   </g>
   <g id="text_16">
    <g id="patch_31">
     <path d="M 217.3748 224.852503 
L 227.630819 224.852503 
L 227.630819 194.542921 
L 217.3748 194.542921 
z
" style="fill: #ffffff"/>
    </g>
    <!-- . -->
    <g transform="translate(221.4 203.841436) scale(0.0694 -0.0694)">
     <use xlink:href="#DejaVuSans-Oblique-2e"/>
    </g>
    <!-- . -->
    <g transform="translate(221.4 211.612718) scale(0.0694 -0.0694)">
     <use xlink:href="#DejaVuSans-Oblique-2e"/>
    </g>
    <!-- . -->
    <g transform="translate(221.4 219.384) scale(0.0694 -0.0694)">
     <use xlink:href="#DejaVuSans-Oblique-2e"/>
    </g>
   </g>
   <g id="text_17">
    <g id="patch_32">
     <path d="M 251.8692 192.070139 
L 289.4463 192.070139 
L 289.4463 180.444905 
L 251.8692 180.444905 
z
" style="fill: #ffffff; stroke: #000000; stroke-linejoin: miter"/>
    </g>
    <!-- $X_3 &lt; -39.5$ -->
    <g transform="translate(254.88 187.8552) scale(0.0579 -0.0579)">
     <use xlink:href="#DejaVuSans-Oblique-58" transform="translate(0 0.78125)"/>
     <use xlink:href="#DejaVuSans-33" transform="translate(68.505859 -15.625) scale(0.7)"/>
     <use xlink:href="#DejaVuSans-3c" transform="translate(135.258789 0.78125)"/>
     <use xlink:href="#DejaVuSans-2212" transform="translate(238.530273 0.78125)"/>
     <use xlink:href="#DejaVuSans-33" transform="translate(322.319336 0.78125)"/>
     <use xlink:href="#DejaVuSans-39" transform="translate(385.942383 0.78125)"/>
     <use xlink:href="#DejaVuSans-2e" transform="translate(449.56543 0.78125)"/>
     <use xlink:href="#DejaVuSans-35" transform="translate(481.352539 0.78125)"/>
    </g>
   </g>
   <g id="text_18">
    <g id="patch_33">
     <path d="M 267.5948 224.852503 
L 277.850819 224.852503 
L 277.850819 194.542921 
L 267.5948 194.542921 
z
" style="fill: #ffffff"/>
    </g>
    <!-- . -->
    <g transform="translate(271.62 203.841436) scale(0.0694 -0.0694)">
     <use xlink:href="#DejaVuSans-Oblique-2e"/>
    </g>
    <!-- . -->
    <g transform="translate(271.62 211.612718) scale(0.0694 -0.0694)">
     <use xlink:href="#DejaVuSans-Oblique-2e"/>
    </g>
    <!-- . -->
    <g transform="translate(271.62 219.384) scale(0.0694 -0.0694)">
     <use xlink:href="#DejaVuSans-Oblique-2e"/>
    </g>
   </g>
   <g id="text_19">
    <g id="patch_34">
     <path d="M 302.0892 192.070139 
L 339.6663 192.070139 
L 339.6663 180.444905 
L 302.0892 180.444905 
z
" style="fill: #ffffff; stroke: #000000; stroke-linejoin: miter"/>
    </g>
    <!-- $X_0 &lt; -42.5$ -->
    <g transform="translate(305.1 187.8552) scale(0.0579 -0.0579)">
     <use xlink:href="#DejaVuSans-Oblique-58" transform="translate(0 0.78125)"/>
     <use xlink:href="#DejaVuSans-30" transform="translate(68.505859 -15.625) scale(0.7)"/>
     <use xlink:href="#DejaVuSans-3c" transform="translate(135.258789 0.78125)"/>
     <use xlink:href="#DejaVuSans-2212" transform="translate(238.530273 0.78125)"/>
     <use xlink:href="#DejaVuSans-34" transform="translate(322.319336 0.78125)"/>
     <use xlink:href="#DejaVuSans-32" transform="translate(385.942383 0.78125)"/>
     <use xlink:href="#DejaVuSans-2e" transform="translate(449.56543 0.78125)"/>
     <use xlink:href="#DejaVuSans-35" transform="translate(481.352539 0.78125)"/>
    </g>
   </g>
   <g id="text_20">
    <g id="patch_35">
     <path d="M 317.8148 224.852503 
L 328.070819 224.852503 
L 328.070819 194.542921 
L 317.8148 194.542921 
z
" style="fill: #ffffff"/>
    </g>
    <!-- . -->
    <g transform="translate(321.84 203.841436) scale(0.0694 -0.0694)">
     <use xlink:href="#DejaVuSans-Oblique-2e"/>
    </g>
    <!-- . -->
    <g transform="translate(321.84 211.612718) scale(0.0694 -0.0694)">
     <use xlink:href="#DejaVuSans-Oblique-2e"/>
    </g>
    <!-- . -->
    <g transform="translate(321.84 219.384) scale(0.0694 -0.0694)">
     <use xlink:href="#DejaVuSans-Oblique-2e"/>
    </g>
   </g>
   <g id="text_21">
    <g id="patch_36">
     <path d="M 355.32 191.954339 
L 362.0364 191.954339 
Q 364.9314 191.954339 364.9314 189.059339 
L 364.9314 183.455705 
Q 364.9314 180.560705 362.0364 180.560705 
L 355.32 180.560705 
Q 352.425 180.560705 352.425 183.455705 
L 352.425 189.059339 
Q 352.425 191.954339 355.32 191.954339 
z
" style="fill: #008000; opacity: 0.5; stroke: #000000; stroke-linejoin: miter"/>
    </g>
    <!-- $X_2$ -->
    <g transform="translate(355.32 187.8552) scale(0.0579 -0.0579)">
     <use xlink:href="#DejaVuSans-Oblique-58" transform="translate(0 0.09375)"/>
     <use xlink:href="#DejaVuSans-32" transform="translate(68.505859 -16.3125) scale(0.7)"/>
    </g>
   </g>
  </g>
 </g>
 <defs>
  <clipPath id="pc5b1ae860a">
   <rect x="54" y="34.56" width="334.8" height="217.44"/>
  </clipPath>
 </defs>
</svg>
