<?xml version="1.0" encoding="utf-8" standalone="no"?>
<!DOCTYPE svg PUBLIC "-//W3C//DTD SVG 1.1//EN"
  "http://www.w3.org/Graphics/SVG/1.1/DTD/svg11.dtd">
<svg xmlns:xlink="http://www.w3.org/1999/xlink" width="460.8pt" height="345.6pt" viewBox="0 0 460.8 345.6" xmlns="http://www.w3.org/2000/svg" version="1.1">
 <metadata>
  <rdf:RDF xmlns:dc="http://purl.org/dc/elements/1.1/" xmlns:cc="http://creativecommons.org/ns#" xmlns:rdf="http://www.w3.org/1999/02/22-rdf-syntax-ns#">
   <cc:Work>
    <dc:type rdf:resource="http://purl.org/dc/dcmitype/StillImage"/>
    <dc:date>2023-10-26T15:33:44.014605</dc:date>
    <dc:format>image/svg+xml</dc:format>
    <dc:creator>
     <cc:Agent>
      <dc:title>Matplotlib v3.5.2, https://matplotlib.org/</dc:title>
     </cc:Agent>
    </dc:creator>
   </cc:Work>
  </rdf:RDF>
 </metadata>
 <defs>
  <style type="text/css">*{stroke-linejoin: round; stroke-linecap: butt}</style>
 </defs>
 <g id="figure_1">
  <g id="patch_1">
   <path d="M 0 345.6 
L 460.8 345.6 
L 460.8 0 
L 0 0 
z
" style="fill: #ffffff"/>
  </g>
  <g id="axes_1">
   <g id="patch_2">
    <path d="M 139.722766 100.021246 
L 139.73554 100.012955 
L 139.736913 100.015412 
L 225.445713 73.404212 
L 225.447087 73.406668 
L 139.738287 100.017868 
L 139.73966 100.020325 
z
" clip-path="url(#p2775084ac4)" style="fill: #1f77b4; stroke: #000000; stroke-linejoin: miter"/>
   </g>
   <g id="patch_3">
    <path d="M 311.170034 100.021246 
L 311.15314 100.020325 
L 311.154513 100.017868 
L 225.445713 73.406668 
L 225.447087 73.404212 
L 311.155887 100.015412 
L 311.15726 100.012955 
z
" clip-path="url(#p2775084ac4)" style="fill: #1f77b4; stroke: #000000; stroke-linejoin: miter"/>
   </g>
   <g id="patch_4">
    <path d="M 96.874286 158.571244 
L 96.878743 158.559066 
L 96.881714 158.560542 
L 139.736114 110.660382 
L 139.739086 110.661858 
L 96.884686 158.562018 
L 96.887657 158.563494 
z
" clip-path="url(#p2775084ac4)" style="fill: #1f77b4; stroke: #000000; stroke-linejoin: miter"/>
   </g>
   <g id="patch_5">
    <path d="M 175.456127 158.572223 
L 175.444705 158.562901 
L 175.447968 158.56182 
L 146.878368 110.66166 
L 146.881632 110.66058 
L 175.451232 158.56074 
L 175.454495 158.559659 
z
" clip-path="url(#p2775084ac4)" style="fill: #1f77b4; stroke: #000000; stroke-linejoin: miter"/>
   </g>
   <g id="patch_6">
    <path d="M 261.149486 158.571244 
L 261.153943 158.559066 
L 261.156914 158.560542 
L 304.011314 110.660382 
L 304.014286 110.661858 
L 261.159886 158.562018 
L 261.162857 158.563494 
z
" clip-path="url(#p2775084ac4)" style="fill: #1f77b4; stroke: #000000; stroke-linejoin: miter"/>
   </g>
   <g id="patch_7">
    <path d="M 346.875004 158.571748 
L 346.862517 158.563219 
L 346.865639 158.561926 
L 311.153639 110.661766 
L 311.156761 110.660474 
L 346.868761 158.560634 
L 346.871883 158.559341 
z
" clip-path="url(#p2775084ac4)" style="fill: #1f77b4; stroke: #000000; stroke-linejoin: miter"/>
   </g>
   <g id="patch_8">
    <path d="M 46.879587 237.075166 
L 46.881548 237.062628 
L 46.884783 237.063756 
L 86.167983 174.527436 
L 86.171217 174.528564 
L 46.888017 237.064884 
L 46.891252 237.066012 
z
" clip-path="url(#p2775084ac4)" style="fill: #1f77b4; stroke: #000000; stroke-linejoin: miter"/>
   </g>
   <g id="patch_9">
    <path d="M 118.315375 231.753467 
L 118.305306 231.743316 
L 118.308702 231.742492 
L 93.310302 174.528412 
L 93.313698 174.527588 
L 118.312098 231.741668 
L 118.315494 231.740844 
z
" clip-path="url(#p2775084ac4)" style="fill: #1f77b4; stroke: #000000; stroke-linejoin: miter"/>
   </g>
   <g id="patch_10">
    <path d="M 164.733428 223.770541 
L 164.730712 223.758081 
L 164.734237 223.758507 
L 175.447837 174.527787 
L 175.451363 174.528213 
L 164.737763 223.758933 
L 164.741288 223.759359 
z
" clip-path="url(#p2775084ac4)" style="fill: #1f77b4; stroke: #000000; stroke-linejoin: miter"/>
   </g>
   <g id="patch_11">
    <path d="M 204.024549 219.778332 
L 204.014149 219.768369 
L 204.017516 219.767483 
L 182.590316 174.528443 
L 182.593684 174.527557 
L 204.020884 219.766597 
L 204.024251 219.765711 
z
" clip-path="url(#p2775084ac4)" style="fill: #1f77b4; stroke: #000000; stroke-linejoin: miter"/>
   </g>
   <g id="patch_12">
    <path d="M 232.583842 223.770111 
L 232.583704 223.757489 
L 232.587101 223.75831 
L 254.014301 174.52759 
L 254.017699 174.52841 
L 232.590499 223.75913 
L 232.593896 223.759951 
z
" clip-path="url(#p2775084ac4)" style="fill: #1f77b4; stroke: #000000; stroke-linejoin: miter"/>
   </g>
   <g id="patch_13">
    <path d="M 289.734379 223.769711 
L 289.723083 223.760304 
L 289.726361 223.759248 
L 261.156761 174.528528 
L 261.160039 174.527472 
L 289.729639 223.758192 
L 289.732917 223.757136 
z
" clip-path="url(#p2775084ac4)" style="fill: #1f77b4; stroke: #000000; stroke-linejoin: miter"/>
   </g>
   <g id="patch_14">
    <path d="M 336.151873 223.770626 
L 336.148274 223.758291 
L 336.151825 223.758577 
L 343.294225 174.527857 
L 343.297775 174.528143 
L 336.155375 223.758863 
L 336.158926 223.759149 
z
" clip-path="url(#p2775084ac4)" style="fill: #1f77b4; stroke: #000000; stroke-linejoin: miter"/>
   </g>
   <g id="patch_15">
    <path d="M 382.586719 219.777623 
L 382.574466 219.768908 
L 382.577622 219.767663 
L 350.436822 174.528623 
L 350.439978 174.527377 
L 382.580778 219.766417 
L 382.583934 219.765172 
z
" clip-path="url(#p2775084ac4)" style="fill: #1f77b4; stroke: #000000; stroke-linejoin: miter"/>
   </g>
   <g id="text_1">
    <g id="patch_16">
     <path d="M 204.5796 72.298139 
L 242.1567 72.298139 
L 242.1567 60.672905 
L 204.5796 60.672905 
z
" style="fill: #ffffff; stroke: #000000; stroke-linejoin: miter"/>
    </g>
    <!-- $X_0 &lt; -54.5$ -->
    <g transform="translate(207.5904 68.0832)scale(0.0579 -0.0579)">
     <defs>
      <path id="DejaVuSans-Oblique-58" d="M 878 4666 
L 1516 4666 
L 2316 2981 
L 3763 4666 
L 4500 4666 
L 2578 2438 
L 3738 0 
L 3103 0 
L 2163 1966 
L 459 0 
L -275 0 
L 1906 2509 
L 878 4666 
z
" transform="scale(0.015625)"/>
      <path id="DejaVuSans-30" d="M 2034 4250 
Q 1547 4250 1301 3770 
Q 1056 3291 1056 2328 
Q 1056 1369 1301 889 
Q 1547 409 2034 409 
Q 2525 409 2770 889 
Q 3016 1369 3016 2328 
Q 3016 3291 2770 3770 
Q 2525 4250 2034 4250 
z
M 2034 4750 
Q 2819 4750 3233 4129 
Q 3647 3509 3647 2328 
Q 3647 1150 3233 529 
Q 2819 -91 2034 -91 
Q 1250 -91 836 529 
Q 422 1150 422 2328 
Q 422 3509 836 4129 
Q 1250 4750 2034 4750 
z
" transform="scale(0.015625)"/>
      <path id="DejaVuSans-3c" d="M 4684 3150 
L 1459 2003 
L 4684 863 
L 4684 294 
L 678 1747 
L 678 2266 
L 4684 3719 
L 4684 3150 
z
" transform="scale(0.015625)"/>
      <path id="DejaVuSans-2212" d="M 678 2272 
L 4684 2272 
L 4684 1741 
L 678 1741 
L 678 2272 
z
" transform="scale(0.015625)"/>
      <path id="DejaVuSans-35" d="M 691 4666 
L 3169 4666 
L 3169 4134 
L 1269 4134 
L 1269 2991 
Q 1406 3038 1543 3061 
Q 1681 3084 1819 3084 
Q 2600 3084 3056 2656 
Q 3513 2228 3513 1497 
Q 3513 744 3044 326 
Q 2575 -91 1722 -91 
Q 1428 -91 1123 -41 
Q 819 9 494 109 
L 494 744 
Q 775 591 1075 516 
Q 1375 441 1709 441 
Q 2250 441 2565 725 
Q 2881 1009 2881 1497 
Q 2881 1984 2565 2268 
Q 2250 2553 1709 2553 
Q 1456 2553 1204 2497 
Q 953 2441 691 2322 
L 691 4666 
z
" transform="scale(0.015625)"/>
      <path id="DejaVuSans-34" d="M 2419 4116 
L 825 1625 
L 2419 1625 
L 2419 4116 
z
M 2253 4666 
L 3047 4666 
L 3047 1625 
L 3713 1625 
L 3713 1100 
L 3047 1100 
L 3047 0 
L 2419 0 
L 2419 1100 
L 313 1100 
L 313 1709 
L 2253 4666 
z
" transform="scale(0.015625)"/>
      <path id="DejaVuSans-2e" d="M 684 794 
L 1344 794 
L 1344 0 
L 684 0 
L 684 794 
z
" transform="scale(0.015625)"/>
     </defs>
     <use xlink:href="#DejaVuSans-Oblique-58" transform="translate(0 0.09375)"/>
     <use xlink:href="#DejaVuSans-30" transform="translate(68.505859 -16.3125)scale(0.7)"/>
     <use xlink:href="#DejaVuSans-3c" transform="translate(135.258789 0.09375)"/>
     <use xlink:href="#DejaVuSans-2212" transform="translate(238.530273 0.09375)"/>
     <use xlink:href="#DejaVuSans-35" transform="translate(322.319336 0.09375)"/>
     <use xlink:href="#DejaVuSans-34" transform="translate(385.942383 0.09375)"/>
     <use xlink:href="#DejaVuSans-2e" transform="translate(449.56543 0.09375)"/>
     <use xlink:href="#DejaVuSans-35" transform="translate(481.352539 0.09375)"/>
    </g>
   </g>
   <g id="text_2">
    <g id="patch_17">
     <path d="M 124.2276 110.884379 
L 161.5152 110.884379 
L 161.5152 99.259145 
L 124.2276 99.259145 
z
" style="fill: #ffffff; stroke: #000000; stroke-linejoin: miter"/>
    </g>
    <!-- $X_4 &lt; -59.5$ -->
    <g transform="translate(127.2384 106.66944)scale(0.0579 -0.0579)">
     <defs>
      <path id="DejaVuSans-39" d="M 703 97 
L 703 672 
Q 941 559 1184 500 
Q 1428 441 1663 441 
Q 2288 441 2617 861 
Q 2947 1281 2994 2138 
Q 2813 1869 2534 1725 
Q 2256 1581 1919 1581 
Q 1219 1581 811 2004 
Q 403 2428 403 3163 
Q 403 3881 828 4315 
Q 1253 4750 1959 4750 
Q 2769 4750 3195 4129 
Q 3622 3509 3622 2328 
Q 3622 1225 3098 567 
Q 2575 -91 1691 -91 
Q 1453 -91 1209 -44 
Q 966 3 703 97 
z
M 1959 2075 
Q 2384 2075 2632 2365 
Q 2881 2656 2881 3163 
Q 2881 3666 2632 3958 
Q 2384 4250 1959 4250 
Q 1534 4250 1286 3958 
Q 1038 3666 1038 3163 
Q 1038 2656 1286 2365 
Q 1534 2075 1959 2075 
z
" transform="scale(0.015625)"/>
     </defs>
     <use xlink:href="#DejaVuSans-Oblique-58" transform="translate(0 0.78125)"/>
     <use xlink:href="#DejaVuSans-34" transform="translate(68.505859 -15.625)scale(0.7)"/>
     <use xlink:href="#DejaVuSans-3c" transform="translate(135.258789 0.78125)"/>
     <use xlink:href="#DejaVuSans-2212" transform="translate(238.530273 0.78125)"/>
     <use xlink:href="#DejaVuSans-35" transform="translate(322.319336 0.78125)"/>
     <use xlink:href="#DejaVuSans-39" transform="translate(380.442383 0.78125)"/>
     <use xlink:href="#DejaVuSans-2e" transform="translate(444.06543 0.78125)"/>
     <use xlink:href="#DejaVuSans-35" transform="translate(475.852539 0.78125)"/>
    </g>
   </g>
   <g id="text_3">
    <g id="patch_18">
     <path d="M 284.9316 110.884379 
L 322.5087 110.884379 
L 322.5087 99.259145 
L 284.9316 99.259145 
z
" style="fill: #ffffff; stroke: #000000; stroke-linejoin: miter"/>
    </g>
    <!-- $X_0 &lt; -44.5$ -->
    <g transform="translate(287.9424 106.66944)scale(0.0579 -0.0579)">
     <use xlink:href="#DejaVuSans-Oblique-58" transform="translate(0 0.09375)"/>
     <use xlink:href="#DejaVuSans-30" transform="translate(68.505859 -16.3125)scale(0.7)"/>
     <use xlink:href="#DejaVuSans-3c" transform="translate(135.258789 0.09375)"/>
     <use xlink:href="#DejaVuSans-2212" transform="translate(238.530273 0.09375)"/>
     <use xlink:href="#DejaVuSans-34" transform="translate(322.319336 0.09375)"/>
     <use xlink:href="#DejaVuSans-34" transform="translate(385.942383 0.09375)"/>
     <use xlink:href="#DejaVuSans-2e" transform="translate(449.56543 0.09375)"/>
     <use xlink:href="#DejaVuSans-35" transform="translate(481.352539 0.09375)"/>
    </g>
   </g>
   <g id="text_4">
    <g id="patch_19">
     <path d="M 72.4452 173.420699 
L 110.0223 173.420699 
L 110.0223 161.795465 
L 72.4452 161.795465 
z
" style="fill: #ffffff; stroke: #000000; stroke-linejoin: miter"/>
    </g>
    <!-- $X_3 &lt; -55.5$ -->
    <g transform="translate(75.456 169.20576)scale(0.0579 -0.0579)">
     <defs>
      <path id="DejaVuSans-33" d="M 2597 2516 
Q 3050 2419 3304 2112 
Q 3559 1806 3559 1356 
Q 3559 666 3084 287 
Q 2609 -91 1734 -91 
Q 1441 -91 1130 -33 
Q 819 25 488 141 
L 488 750 
Q 750 597 1062 519 
Q 1375 441 1716 441 
Q 2309 441 2620 675 
Q 2931 909 2931 1356 
Q 2931 1769 2642 2001 
Q 2353 2234 1838 2234 
L 1294 2234 
L 1294 2753 
L 1863 2753 
Q 2328 2753 2575 2939 
Q 2822 3125 2822 3475 
Q 2822 3834 2567 4026 
Q 2313 4219 1838 4219 
Q 1578 4219 1281 4162 
Q 984 4106 628 3988 
L 628 4550 
Q 988 4650 1302 4700 
Q 1616 4750 1894 4750 
Q 2613 4750 3031 4423 
Q 3450 4097 3450 3541 
Q 3450 3153 3228 2886 
Q 3006 2619 2597 2516 
z
" transform="scale(0.015625)"/>
     </defs>
     <use xlink:href="#DejaVuSans-Oblique-58" transform="translate(0 0.09375)"/>
     <use xlink:href="#DejaVuSans-33" transform="translate(68.505859 -16.3125)scale(0.7)"/>
     <use xlink:href="#DejaVuSans-3c" transform="translate(135.258789 0.09375)"/>
     <use xlink:href="#DejaVuSans-2212" transform="translate(238.530273 0.09375)"/>
     <use xlink:href="#DejaVuSans-35" transform="translate(322.319336 0.09375)"/>
     <use xlink:href="#DejaVuSans-35" transform="translate(385.942383 0.09375)"/>
     <use xlink:href="#DejaVuSans-2e" transform="translate(449.56543 0.09375)"/>
     <use xlink:href="#DejaVuSans-35" transform="translate(481.352539 0.09375)"/>
    </g>
   </g>
   <g id="text_5">
    <g id="patch_20">
     <path d="M 154.5828 173.420699 
L 192.1599 173.420699 
L 192.1599 161.795465 
L 154.5828 161.795465 
z
" style="fill: #ffffff; stroke: #000000; stroke-linejoin: miter"/>
    </g>
    <!-- $X_4 &lt; -56.5$ -->
    <g transform="translate(157.5936 169.20576)scale(0.0579 -0.0579)">
     <defs>
      <path id="DejaVuSans-36" d="M 2113 2584 
Q 1688 2584 1439 2293 
Q 1191 2003 1191 1497 
Q 1191 994 1439 701 
Q 1688 409 2113 409 
Q 2538 409 2786 701 
Q 3034 994 3034 1497 
Q 3034 2003 2786 2293 
Q 2538 2584 2113 2584 
z
M 3366 4563 
L 3366 3988 
Q 3128 4100 2886 4159 
Q 2644 4219 2406 4219 
Q 1781 4219 1451 3797 
Q 1122 3375 1075 2522 
Q 1259 2794 1537 2939 
Q 1816 3084 2150 3084 
Q 2853 3084 3261 2657 
Q 3669 2231 3669 1497 
Q 3669 778 3244 343 
Q 2819 -91 2113 -91 
Q 1303 -91 875 529 
Q 447 1150 447 2328 
Q 447 3434 972 4092 
Q 1497 4750 2381 4750 
Q 2619 4750 2861 4703 
Q 3103 4656 3366 4563 
z
" transform="scale(0.015625)"/>
     </defs>
     <use xlink:href="#DejaVuSans-Oblique-58" transform="translate(0 0.78125)"/>
     <use xlink:href="#DejaVuSans-34" transform="translate(68.505859 -15.625)scale(0.7)"/>
     <use xlink:href="#DejaVuSans-3c" transform="translate(135.258789 0.78125)"/>
     <use xlink:href="#DejaVuSans-2212" transform="translate(238.530273 0.78125)"/>
     <use xlink:href="#DejaVuSans-35" transform="translate(322.319336 0.78125)"/>
     <use xlink:href="#DejaVuSans-36" transform="translate(385.942383 0.78125)"/>
     <use xlink:href="#DejaVuSans-2e" transform="translate(449.56543 0.78125)"/>
     <use xlink:href="#DejaVuSans-35" transform="translate(481.352539 0.78125)"/>
    </g>
   </g>
   <g id="text_6">
    <g id="patch_21">
     <path d="M 240.2916 173.420699 
L 277.8687 173.420699 
L 277.8687 161.795465 
L 240.2916 161.795465 
z
" style="fill: #ffffff; stroke: #000000; stroke-linejoin: miter"/>
    </g>
    <!-- $X_4 &lt; -70.5$ -->
    <g transform="translate(243.3024 169.20576)scale(0.0579 -0.0579)">
     <defs>
      <path id="DejaVuSans-37" d="M 525 4666 
L 3525 4666 
L 3525 4397 
L 1831 0 
L 1172 0 
L 2766 4134 
L 525 4134 
L 525 4666 
z
" transform="scale(0.015625)"/>
     </defs>
     <use xlink:href="#DejaVuSans-Oblique-58" transform="translate(0 0.78125)"/>
     <use xlink:href="#DejaVuSans-34" transform="translate(68.505859 -15.625)scale(0.7)"/>
     <use xlink:href="#DejaVuSans-3c" transform="translate(135.258789 0.78125)"/>
     <use xlink:href="#DejaVuSans-2212" transform="translate(238.530273 0.78125)"/>
     <use xlink:href="#DejaVuSans-37" transform="translate(322.319336 0.78125)"/>
     <use xlink:href="#DejaVuSans-30" transform="translate(385.942383 0.78125)"/>
     <use xlink:href="#DejaVuSans-2e" transform="translate(449.56543 0.78125)"/>
     <use xlink:href="#DejaVuSans-35" transform="translate(481.352539 0.78125)"/>
    </g>
   </g>
   <g id="text_7">
    <g id="patch_22">
     <path d="M 329.5716 173.420699 
L 367.1487 173.420699 
L 367.1487 161.795465 
L 329.5716 161.795465 
z
" style="fill: #ffffff; stroke: #000000; stroke-linejoin: miter"/>
    </g>
    <!-- $X_3 &lt; -47.5$ -->
    <g transform="translate(332.5824 169.20576)scale(0.0579 -0.0579)">
     <use xlink:href="#DejaVuSans-Oblique-58" transform="translate(0 0.09375)"/>
     <use xlink:href="#DejaVuSans-33" transform="translate(68.505859 -16.3125)scale(0.7)"/>
     <use xlink:href="#DejaVuSans-3c" transform="translate(135.258789 0.09375)"/>
     <use xlink:href="#DejaVuSans-2212" transform="translate(238.530273 0.09375)"/>
     <use xlink:href="#DejaVuSans-34" transform="translate(322.319336 0.09375)"/>
     <use xlink:href="#DejaVuSans-37" transform="translate(385.942383 0.09375)"/>
     <use xlink:href="#DejaVuSans-2e" transform="translate(449.56543 0.09375)"/>
     <use xlink:href="#DejaVuSans-35" transform="translate(481.352539 0.09375)"/>
    </g>
   </g>
   <g id="text_8">
    <g id="patch_23">
     <path d="M 36.7332 233.295899 
L 74.3103 233.295899 
L 74.3103 221.670665 
L 36.7332 221.670665 
z
" style="fill: #ffffff; stroke: #000000; stroke-linejoin: miter"/>
    </g>
    <!-- $X_2 &lt; -55.5$ -->
    <g transform="translate(39.744 229.08096)scale(0.0579 -0.0579)">
     <defs>
      <path id="DejaVuSans-32" d="M 1228 531 
L 3431 531 
L 3431 0 
L 469 0 
L 469 531 
Q 828 903 1448 1529 
Q 2069 2156 2228 2338 
Q 2531 2678 2651 2914 
Q 2772 3150 2772 3378 
Q 2772 3750 2511 3984 
Q 2250 4219 1831 4219 
Q 1534 4219 1204 4116 
Q 875 4013 500 3803 
L 500 4441 
Q 881 4594 1212 4672 
Q 1544 4750 1819 4750 
Q 2544 4750 2975 4387 
Q 3406 4025 3406 3419 
Q 3406 3131 3298 2873 
Q 3191 2616 2906 2266 
Q 2828 2175 2409 1742 
Q 1991 1309 1228 531 
z
" transform="scale(0.015625)"/>
     </defs>
     <use xlink:href="#DejaVuSans-Oblique-58" transform="translate(0 0.09375)"/>
     <use xlink:href="#DejaVuSans-32" transform="translate(68.505859 -16.3125)scale(0.7)"/>
     <use xlink:href="#DejaVuSans-3c" transform="translate(135.258789 0.09375)"/>
     <use xlink:href="#DejaVuSans-2212" transform="translate(238.530273 0.09375)"/>
     <use xlink:href="#DejaVuSans-35" transform="translate(322.319336 0.09375)"/>
     <use xlink:href="#DejaVuSans-35" transform="translate(385.942383 0.09375)"/>
     <use xlink:href="#DejaVuSans-2e" transform="translate(449.56543 0.09375)"/>
     <use xlink:href="#DejaVuSans-35" transform="translate(481.352539 0.09375)"/>
    </g>
   </g>
   <g id="text_9">
    <g id="patch_24">
     <path d="M 53.5748 273.135703 
L 63.830819 273.135703 
L 63.830819 242.826121 
L 53.5748 242.826121 
z
" style="fill: #ffffff"/>
    </g>
    <!-- . -->
    <g transform="translate(57.6 252.124636)scale(0.0694 -0.0694)">
     <defs>
      <path id="DejaVuSans-Oblique-2e" d="M 525 794 
L 1184 794 
L 1031 0 
L 372 0 
L 525 794 
z
" transform="scale(0.015625)"/>
     </defs>
     <use xlink:href="#DejaVuSans-Oblique-2e"/>
    </g>
    <!-- . -->
    <g transform="translate(57.6 259.895918)scale(0.0694 -0.0694)">
     <use xlink:href="#DejaVuSans-Oblique-2e"/>
    </g>
    <!-- . -->
    <g transform="translate(57.6 267.6672)scale(0.0694 -0.0694)">
     <use xlink:href="#DejaVuSans-Oblique-2e"/>
    </g>
   </g>
   <g id="text_10">
    <g id="patch_25">
     <path d="M 90.3012 233.295899 
L 127.8783 233.295899 
L 127.8783 221.670665 
L 90.3012 221.670665 
z
" style="fill: #ffffff; stroke: #000000; stroke-linejoin: miter"/>
    </g>
    <!-- $X_1 &lt; -50.5$ -->
    <g transform="translate(93.312 229.08096)scale(0.0579 -0.0579)">
     <defs>
      <path id="DejaVuSans-31" d="M 794 531 
L 1825 531 
L 1825 4091 
L 703 3866 
L 703 4441 
L 1819 4666 
L 2450 4666 
L 2450 531 
L 3481 531 
L 3481 0 
L 794 0 
L 794 531 
z
" transform="scale(0.015625)"/>
     </defs>
     <use xlink:href="#DejaVuSans-Oblique-58" transform="translate(0 0.78125)"/>
     <use xlink:href="#DejaVuSans-31" transform="translate(68.505859 -15.625)scale(0.7)"/>
     <use xlink:href="#DejaVuSans-3c" transform="translate(135.258789 0.78125)"/>
     <use xlink:href="#DejaVuSans-2212" transform="translate(238.530273 0.78125)"/>
     <use xlink:href="#DejaVuSans-35" transform="translate(322.319336 0.78125)"/>
     <use xlink:href="#DejaVuSans-30" transform="translate(385.942383 0.78125)"/>
     <use xlink:href="#DejaVuSans-2e" transform="translate(449.56543 0.78125)"/>
     <use xlink:href="#DejaVuSans-35" transform="translate(481.352539 0.78125)"/>
    </g>
   </g>
   <g id="text_11">
    <g id="patch_26">
     <path d="M 107.1428 273.135703 
L 117.398819 273.135703 
L 117.398819 242.826121 
L 107.1428 242.826121 
z
" style="fill: #ffffff"/>
    </g>
    <!-- . -->
    <g transform="translate(111.168 252.124636)scale(0.0694 -0.0694)">
     <use xlink:href="#DejaVuSans-Oblique-2e"/>
    </g>
    <!-- . -->
    <g transform="translate(111.168 259.895918)scale(0.0694 -0.0694)">
     <use xlink:href="#DejaVuSans-Oblique-2e"/>
    </g>
    <!-- . -->
    <g transform="translate(111.168 267.6672)scale(0.0694 -0.0694)">
     <use xlink:href="#DejaVuSans-Oblique-2e"/>
    </g>
   </g>
   <g id="text_12">
    <g id="patch_27">
     <path d="M 143.8692 233.295899 
L 181.4463 233.295899 
L 181.4463 221.670665 
L 143.8692 221.670665 
z
" style="fill: #ffffff; stroke: #000000; stroke-linejoin: miter"/>
    </g>
    <!-- $X_3 &lt; -58.5$ -->
    <g transform="translate(146.88 229.08096)scale(0.0579 -0.0579)">
     <defs>
      <path id="DejaVuSans-38" d="M 2034 2216 
Q 1584 2216 1326 1975 
Q 1069 1734 1069 1313 
Q 1069 891 1326 650 
Q 1584 409 2034 409 
Q 2484 409 2743 651 
Q 3003 894 3003 1313 
Q 3003 1734 2745 1975 
Q 2488 2216 2034 2216 
z
M 1403 2484 
Q 997 2584 770 2862 
Q 544 3141 544 3541 
Q 544 4100 942 4425 
Q 1341 4750 2034 4750 
Q 2731 4750 3128 4425 
Q 3525 4100 3525 3541 
Q 3525 3141 3298 2862 
Q 3072 2584 2669 2484 
Q 3125 2378 3379 2068 
Q 3634 1759 3634 1313 
Q 3634 634 3220 271 
Q 2806 -91 2034 -91 
Q 1263 -91 848 271 
Q 434 634 434 1313 
Q 434 1759 690 2068 
Q 947 2378 1403 2484 
z
M 1172 3481 
Q 1172 3119 1398 2916 
Q 1625 2713 2034 2713 
Q 2441 2713 2670 2916 
Q 2900 3119 2900 3481 
Q 2900 3844 2670 4047 
Q 2441 4250 2034 4250 
Q 1625 4250 1398 4047 
Q 1172 3844 1172 3481 
z
" transform="scale(0.015625)"/>
     </defs>
     <use xlink:href="#DejaVuSans-Oblique-58" transform="translate(0 0.78125)"/>
     <use xlink:href="#DejaVuSans-33" transform="translate(68.505859 -15.625)scale(0.7)"/>
     <use xlink:href="#DejaVuSans-3c" transform="translate(135.258789 0.78125)"/>
     <use xlink:href="#DejaVuSans-2212" transform="translate(238.530273 0.78125)"/>
     <use xlink:href="#DejaVuSans-35" transform="translate(322.319336 0.78125)"/>
     <use xlink:href="#DejaVuSans-38" transform="translate(385.942383 0.78125)"/>
     <use xlink:href="#DejaVuSans-2e" transform="translate(449.56543 0.78125)"/>
     <use xlink:href="#DejaVuSans-35" transform="translate(481.352539 0.78125)"/>
    </g>
   </g>
   <g id="text_13">
    <g id="patch_28">
     <path d="M 160.7108 273.135703 
L 170.966819 273.135703 
L 170.966819 242.826121 
L 160.7108 242.826121 
z
" style="fill: #ffffff"/>
    </g>
    <!-- . -->
    <g transform="translate(164.736 252.124636)scale(0.0694 -0.0694)">
     <use xlink:href="#DejaVuSans-Oblique-2e"/>
    </g>
    <!-- . -->
    <g transform="translate(164.736 259.895918)scale(0.0694 -0.0694)">
     <use xlink:href="#DejaVuSans-Oblique-2e"/>
    </g>
    <!-- . -->
    <g transform="translate(164.736 267.6672)scale(0.0694 -0.0694)">
     <use xlink:href="#DejaVuSans-Oblique-2e"/>
    </g>
   </g>
   <g id="text_14">
    <g id="patch_29">
     <path d="M 200.448 233.180099 
L 206.4117 233.180099 
Q 209.3067 233.180099 209.3067 230.285099 
L 209.3067 224.681465 
Q 209.3067 221.786465 206.4117 221.786465 
L 200.448 221.786465 
Q 197.553 221.786465 197.553 224.681465 
L 197.553 230.285099 
Q 197.553 233.180099 200.448 233.180099 
z
" style="fill: #008000; opacity: 0.5; stroke: #000000; stroke-linejoin: miter"/>
    </g>
    <!-- $L_4$ -->
    <g transform="translate(200.448 229.08096)scale(0.0579 -0.0579)">
     <defs>
      <path id="DejaVuSans-Oblique-4c" d="M 1075 4666 
L 1709 4666 
L 909 525 
L 3181 525 
L 3078 0 
L 172 0 
L 1075 4666 
z
" transform="scale(0.015625)"/>
     </defs>
     <use xlink:href="#DejaVuSans-Oblique-4c" transform="translate(0 0.09375)"/>
     <use xlink:href="#DejaVuSans-34" transform="translate(55.712891 -16.3125)scale(0.7)"/>
    </g>
   </g>
   <g id="text_15">
    <g id="patch_30">
     <path d="M 215.2932 233.295899 
L 252.8703 233.295899 
L 252.8703 221.670665 
L 215.2932 221.670665 
z
" style="fill: #ffffff; stroke: #000000; stroke-linejoin: miter"/>
    </g>
    <!-- $X_3 &lt; -48.5$ -->
    <g transform="translate(218.304 229.08096)scale(0.0579 -0.0579)">
     <use xlink:href="#DejaVuSans-Oblique-58" transform="translate(0 0.78125)"/>
     <use xlink:href="#DejaVuSans-33" transform="translate(68.505859 -15.625)scale(0.7)"/>
     <use xlink:href="#DejaVuSans-3c" transform="translate(135.258789 0.78125)"/>
     <use xlink:href="#DejaVuSans-2212" transform="translate(238.530273 0.78125)"/>
     <use xlink:href="#DejaVuSans-34" transform="translate(322.319336 0.78125)"/>
     <use xlink:href="#DejaVuSans-38" transform="translate(385.942383 0.78125)"/>
     <use xlink:href="#DejaVuSans-2e" transform="translate(449.56543 0.78125)"/>
     <use xlink:href="#DejaVuSans-35" transform="translate(481.352539 0.78125)"/>
    </g>
   </g>
   <g id="text_16">
    <g id="patch_31">
     <path d="M 232.1348 273.135703 
L 242.390819 273.135703 
L 242.390819 242.826121 
L 232.1348 242.826121 
z
" style="fill: #ffffff"/>
    </g>
    <!-- . -->
    <g transform="translate(236.16 252.124636)scale(0.0694 -0.0694)">
     <use xlink:href="#DejaVuSans-Oblique-2e"/>
    </g>
    <!-- . -->
    <g transform="translate(236.16 259.895918)scale(0.0694 -0.0694)">
     <use xlink:href="#DejaVuSans-Oblique-2e"/>
    </g>
    <!-- . -->
    <g transform="translate(236.16 267.6672)scale(0.0694 -0.0694)">
     <use xlink:href="#DejaVuSans-Oblique-2e"/>
    </g>
   </g>
   <g id="text_17">
    <g id="patch_32">
     <path d="M 268.8612 233.295899 
L 306.4383 233.295899 
L 306.4383 221.670665 
L 268.8612 221.670665 
z
" style="fill: #ffffff; stroke: #000000; stroke-linejoin: miter"/>
    </g>
    <!-- $X_3 &lt; -39.5$ -->
    <g transform="translate(271.872 229.08096)scale(0.0579 -0.0579)">
     <use xlink:href="#DejaVuSans-Oblique-58" transform="translate(0 0.78125)"/>
     <use xlink:href="#DejaVuSans-33" transform="translate(68.505859 -15.625)scale(0.7)"/>
     <use xlink:href="#DejaVuSans-3c" transform="translate(135.258789 0.78125)"/>
     <use xlink:href="#DejaVuSans-2212" transform="translate(238.530273 0.78125)"/>
     <use xlink:href="#DejaVuSans-33" transform="translate(322.319336 0.78125)"/>
     <use xlink:href="#DejaVuSans-39" transform="translate(385.942383 0.78125)"/>
     <use xlink:href="#DejaVuSans-2e" transform="translate(449.56543 0.78125)"/>
     <use xlink:href="#DejaVuSans-35" transform="translate(481.352539 0.78125)"/>
    </g>
   </g>
   <g id="text_18">
    <g id="patch_33">
     <path d="M 285.7028 273.135703 
L 295.958819 273.135703 
L 295.958819 242.826121 
L 285.7028 242.826121 
z
" style="fill: #ffffff"/>
    </g>
    <!-- . -->
    <g transform="translate(289.728 252.124636)scale(0.0694 -0.0694)">
     <use xlink:href="#DejaVuSans-Oblique-2e"/>
    </g>
    <!-- . -->
    <g transform="translate(289.728 259.895918)scale(0.0694 -0.0694)">
     <use xlink:href="#DejaVuSans-Oblique-2e"/>
    </g>
    <!-- . -->
    <g transform="translate(289.728 267.6672)scale(0.0694 -0.0694)">
     <use xlink:href="#DejaVuSans-Oblique-2e"/>
    </g>
   </g>
   <g id="text_19">
    <g id="patch_34">
     <path d="M 322.4292 233.295899 
L 360.0063 233.295899 
L 360.0063 221.670665 
L 322.4292 221.670665 
z
" style="fill: #ffffff; stroke: #000000; stroke-linejoin: miter"/>
    </g>
    <!-- $X_0 &lt; -42.5$ -->
    <g transform="translate(325.44 229.08096)scale(0.0579 -0.0579)">
     <use xlink:href="#DejaVuSans-Oblique-58" transform="translate(0 0.78125)"/>
     <use xlink:href="#DejaVuSans-30" transform="translate(68.505859 -15.625)scale(0.7)"/>
     <use xlink:href="#DejaVuSans-3c" transform="translate(135.258789 0.78125)"/>
     <use xlink:href="#DejaVuSans-2212" transform="translate(238.530273 0.78125)"/>
     <use xlink:href="#DejaVuSans-34" transform="translate(322.319336 0.78125)"/>
     <use xlink:href="#DejaVuSans-32" transform="translate(385.942383 0.78125)"/>
     <use xlink:href="#DejaVuSans-2e" transform="translate(449.56543 0.78125)"/>
     <use xlink:href="#DejaVuSans-35" transform="translate(481.352539 0.78125)"/>
    </g>
   </g>
   <g id="text_20">
    <g id="patch_35">
     <path d="M 339.2708 273.135703 
L 349.526819 273.135703 
L 349.526819 242.826121 
L 339.2708 242.826121 
z
" style="fill: #ffffff"/>
    </g>
    <!-- . -->
    <g transform="translate(343.296 252.124636)scale(0.0694 -0.0694)">
     <use xlink:href="#DejaVuSans-Oblique-2e"/>
    </g>
    <!-- . -->
    <g transform="translate(343.296 259.895918)scale(0.0694 -0.0694)">
     <use xlink:href="#DejaVuSans-Oblique-2e"/>
    </g>
    <!-- . -->
    <g transform="translate(343.296 267.6672)scale(0.0694 -0.0694)">
     <use xlink:href="#DejaVuSans-Oblique-2e"/>
    </g>
   </g>
   <g id="text_21">
    <g id="patch_36">
     <path d="M 379.008 233.180099 
L 384.9717 233.180099 
Q 387.8667 233.180099 387.8667 230.285099 
L 387.8667 224.681465 
Q 387.8667 221.786465 384.9717 221.786465 
L 379.008 221.786465 
Q 376.113 221.786465 376.113 224.681465 
L 376.113 230.285099 
Q 376.113 233.180099 379.008 233.180099 
z
" style="fill: #008000; opacity: 0.5; stroke: #000000; stroke-linejoin: miter"/>
    </g>
    <!-- $L_2$ -->
    <g transform="translate(379.008 229.08096)scale(0.0579 -0.0579)">
     <use xlink:href="#DejaVuSans-Oblique-4c" transform="translate(0 0.09375)"/>
     <use xlink:href="#DejaVuSans-32" transform="translate(55.712891 -16.3125)scale(0.7)"/>
    </g>
   </g>
  </g>
 </g>
 <defs>
  <clipPath id="p2775084ac4">
   <rect x="57.6" y="41.472" width="357.12" height="266.112"/>
  </clipPath>
 </defs>
</svg>
