<?xml version="1.0" encoding="utf-8" standalone="no"?>
<!DOCTYPE svg PUBLIC "-//W3C//DTD SVG 1.1//EN"
  "http://www.w3.org/Graphics/SVG/1.1/DTD/svg11.dtd">
<svg xmlns:xlink="http://www.w3.org/1999/xlink" width="864pt" height="864pt" viewBox="0 0 864 864" xmlns="http://www.w3.org/2000/svg" version="1.1">
 <metadata>
  <rdf:RDF xmlns:dc="http://purl.org/dc/elements/1.1/" xmlns:cc="http://creativecommons.org/ns#" xmlns:rdf="http://www.w3.org/1999/02/22-rdf-syntax-ns#">
   <cc:Work>
    <dc:type rdf:resource="http://purl.org/dc/dcmitype/StillImage"/>
    <dc:date>2023-10-26T20:49:30.889843</dc:date>
    <dc:format>image/svg+xml</dc:format>
    <dc:creator>
     <cc:Agent>
      <dc:title>Matplotlib v3.7.2, https://matplotlib.org/</dc:title>
     </cc:Agent>
    </dc:creator>
   </cc:Work>
  </rdf:RDF>
 </metadata>
 <defs>
  <style type="text/css">*{stroke-linejoin: round; stroke-linecap: butt}</style>
 </defs>
 <g id="figure_1">
  <g id="patch_1">
   <path d="M 0 864 
L 864 864 
L 864 0 
L 0 0 
z
" style="fill: #ffffff"/>
  </g>
  <g id="axes_1">
   <g id="PathCollection_1">
    <defs>
     <path id="m728e733654" d="M 0 6.123724 
C 1.624031 6.123724 3.181764 5.47849 4.330127 4.330127 
C 5.47849 3.181764 6.123724 1.624031 6.123724 0 
C 6.123724 -1.624031 5.47849 -3.181764 4.330127 -4.330127 
C 3.181764 -5.47849 1.624031 -6.123724 0 -6.123724 
C -1.624031 -6.123724 -3.181764 -5.47849 -4.330127 -4.330127 
C -5.47849 -3.181764 -6.123724 -1.624031 -6.123724 0 
C -6.123724 1.624031 -5.47849 3.181764 -4.330127 4.330127 
C -3.181764 5.47849 -1.624031 6.123724 0 6.123724 
z
" style="stroke: #008000; stroke-opacity: 0.5"/>
    </defs>
    <g clip-path="url(#pf5c062417e)">
     <use xlink:href="#m728e733654" x="375.84" y="312.4224" style="fill: #008000; fill-opacity: 0.5; stroke: #008000; stroke-opacity: 0.5"/>
    </g>
   </g>
   <g id="PathCollection_2">
    <g clip-path="url(#pf5c062417e)">
     <use xlink:href="#m728e733654" x="613.92" y="312.4224" style="fill: #008000; fill-opacity: 0.5; stroke: #008000; stroke-opacity: 0.5"/>
    </g>
   </g>
   <g id="patch_2">
    <path d="M 405.6 242.031128 
Q 405.6 241.442467 405.6 241.97184 
" style="fill: none; stroke: #000000; stroke-linecap: round"/>
    <path d="M 404 245.231128 
L 405.6 242.031128 
L 407.2 245.231128 
" style="fill: none; stroke: #000000; stroke-linecap: round"/>
   </g>
   <g id="text_1">
    <g id="patch_3">
     <path d="M 383.8 240.41525 
L 427.4 240.41525 
Q 429.8 240.41525 429.8 238.01525 
L 429.8 230.27275 
Q 429.8 227.87275 427.4 227.87275 
L 383.8 227.87275 
Q 381.4 227.87275 381.4 230.27275 
L 381.4 238.01525 
Q 381.4 240.41525 383.8 240.41525 
z
" style="fill: #ffffff; stroke: #000000; stroke-linejoin: miter"/>
    </g>
    <!-- $X_0 &lt; -54.5$ -->
    <g transform="translate(383.8 236.3515) scale(0.08 -0.08)">
     <defs>
      <path id="DejaVuSans-Oblique-58" d="M 878 4666 
L 1516 4666 
L 2316 2981 
L 3763 4666 
L 4500 4666 
L 2578 2438 
L 3738 0 
L 3103 0 
L 2163 1966 
L 459 0 
L -275 0 
L 1906 2509 
L 878 4666 
z
" transform="scale(0.015625)"/>
      <path id="DejaVuSans-30" d="M 2034 4250 
Q 1547 4250 1301 3770 
Q 1056 3291 1056 2328 
Q 1056 1369 1301 889 
Q 1547 409 2034 409 
Q 2525 409 2770 889 
Q 3016 1369 3016 2328 
Q 3016 3291 2770 3770 
Q 2525 4250 2034 4250 
z
M 2034 4750 
Q 2819 4750 3233 4129 
Q 3647 3509 3647 2328 
Q 3647 1150 3233 529 
Q 2819 -91 2034 -91 
Q 1250 -91 836 529 
Q 422 1150 422 2328 
Q 422 3509 836 4129 
Q 1250 4750 2034 4750 
z
" transform="scale(0.015625)"/>
      <path id="DejaVuSans-3c" d="M 4684 3150 
L 1459 2003 
L 4684 863 
L 4684 294 
L 678 1747 
L 678 2266 
L 4684 3719 
L 4684 3150 
z
" transform="scale(0.015625)"/>
      <path id="DejaVuSans-2212" d="M 678 2272 
L 4684 2272 
L 4684 1741 
L 678 1741 
L 678 2272 
z
" transform="scale(0.015625)"/>
      <path id="DejaVuSans-35" d="M 691 4666 
L 3169 4666 
L 3169 4134 
L 1269 4134 
L 1269 2991 
Q 1406 3038 1543 3061 
Q 1681 3084 1819 3084 
Q 2600 3084 3056 2656 
Q 3513 2228 3513 1497 
Q 3513 744 3044 326 
Q 2575 -91 1722 -91 
Q 1428 -91 1123 -41 
Q 819 9 494 109 
L 494 744 
Q 775 591 1075 516 
Q 1375 441 1709 441 
Q 2250 441 2565 725 
Q 2881 1009 2881 1497 
Q 2881 1984 2565 2268 
Q 2250 2553 1709 2553 
Q 1456 2553 1204 2497 
Q 953 2441 691 2322 
L 691 4666 
z
" transform="scale(0.015625)"/>
      <path id="DejaVuSans-34" d="M 2419 4116 
L 825 1625 
L 2419 1625 
L 2419 4116 
z
M 2253 4666 
L 3047 4666 
L 3047 1625 
L 3713 1625 
L 3713 1100 
L 3047 1100 
L 3047 0 
L 2419 0 
L 2419 1100 
L 313 1100 
L 313 1709 
L 2253 4666 
z
" transform="scale(0.015625)"/>
      <path id="DejaVuSans-2e" d="M 684 794 
L 1344 794 
L 1344 0 
L 684 0 
L 684 794 
z
" transform="scale(0.015625)"/>
     </defs>
     <use xlink:href="#DejaVuSans-Oblique-58" transform="translate(0 0.09375)"/>
     <use xlink:href="#DejaVuSans-30" transform="translate(68.505859 -16.3125) scale(0.7)"/>
     <use xlink:href="#DejaVuSans-3c" transform="translate(135.258789 0.09375)"/>
     <use xlink:href="#DejaVuSans-2212" transform="translate(238.530273 0.09375)"/>
     <use xlink:href="#DejaVuSans-35" transform="translate(322.319336 0.09375)"/>
     <use xlink:href="#DejaVuSans-34" transform="translate(385.942383 0.09375)"/>
     <use xlink:href="#DejaVuSans-2e" transform="translate(449.56543 0.09375)"/>
     <use xlink:href="#DejaVuSans-35" transform="translate(481.352539 0.09375)"/>
    </g>
   </g>
   <g id="patch_4">
    <path d="M 317.110479 255.549272 
Q 358.332329 249.224378 400.659281 242.729922 
" style="fill: none; stroke: #000000; stroke-linecap: round"/>
    <path d="M 320.51612 256.645451 
L 317.110479 255.549272 
L 320.030806 253.482466 
" style="fill: none; stroke: #000000; stroke-linecap: round"/>
   </g>
   <g id="text_2">
    <g id="patch_5">
     <path d="M 264.96 266.50805 
L 308.16 266.50805 
Q 310.56 266.50805 310.56 264.10805 
L 310.56 256.36555 
Q 310.56 253.96555 308.16 253.96555 
L 264.96 253.96555 
Q 262.56 253.96555 262.56 256.36555 
L 262.56 264.10805 
Q 262.56 266.50805 264.96 266.50805 
z
" style="fill: #ffffff; stroke: #000000; stroke-linejoin: miter"/>
    </g>
    <!-- $X_4 &lt; -59.5$ -->
    <g transform="translate(264.96 262.4443) scale(0.08 -0.08)">
     <defs>
      <path id="DejaVuSans-39" d="M 703 97 
L 703 672 
Q 941 559 1184 500 
Q 1428 441 1663 441 
Q 2288 441 2617 861 
Q 2947 1281 2994 2138 
Q 2813 1869 2534 1725 
Q 2256 1581 1919 1581 
Q 1219 1581 811 2004 
Q 403 2428 403 3163 
Q 403 3881 828 4315 
Q 1253 4750 1959 4750 
Q 2769 4750 3195 4129 
Q 3622 3509 3622 2328 
Q 3622 1225 3098 567 
Q 2575 -91 1691 -91 
Q 1453 -91 1209 -44 
Q 966 3 703 97 
z
M 1959 2075 
Q 2384 2075 2632 2365 
Q 2881 2656 2881 3163 
Q 2881 3666 2632 3958 
Q 2384 4250 1959 4250 
Q 1534 4250 1286 3958 
Q 1038 3666 1038 3163 
Q 1038 2656 1286 2365 
Q 1534 2075 1959 2075 
z
" transform="scale(0.015625)"/>
     </defs>
     <use xlink:href="#DejaVuSans-Oblique-58" transform="translate(0 0.78125)"/>
     <use xlink:href="#DejaVuSans-34" transform="translate(68.505859 -15.625) scale(0.7)"/>
     <use xlink:href="#DejaVuSans-3c" transform="translate(135.258789 0.78125)"/>
     <use xlink:href="#DejaVuSans-2212" transform="translate(238.530273 0.78125)"/>
     <use xlink:href="#DejaVuSans-35" transform="translate(322.319336 0.78125)"/>
     <use xlink:href="#DejaVuSans-39" transform="translate(380.442383 0.78125)"/>
     <use xlink:href="#DejaVuSans-2e" transform="translate(444.06543 0.78125)"/>
     <use xlink:href="#DejaVuSans-35" transform="translate(475.852539 0.78125)"/>
    </g>
   </g>
   <g id="patch_6">
    <path d="M 254.876623 277.787348 
Q 267.795043 273.823061 281.782302 269.530777 
" style="fill: none; stroke: #000000; stroke-linecap: round"/>
    <path d="M 258.405211 278.378168 
L 254.876623 277.787348 
L 257.466432 275.31897 
" style="fill: none; stroke: #000000; stroke-linecap: round"/>
   </g>
   <g id="text_3">
    <g id="patch_7">
     <path d="M 205.24 292.60085 
L 248.84 292.60085 
Q 251.24 292.60085 251.24 290.20085 
L 251.24 282.45835 
Q 251.24 280.05835 248.84 280.05835 
L 205.24 280.05835 
Q 202.84 280.05835 202.84 282.45835 
L 202.84 290.20085 
Q 202.84 292.60085 205.24 292.60085 
z
" style="fill: #ffffff; stroke: #000000; stroke-linejoin: miter"/>
    </g>
    <!-- $X_3 &lt; -55.5$ -->
    <g transform="translate(205.24 288.5371) scale(0.08 -0.08)">
     <defs>
      <path id="DejaVuSans-33" d="M 2597 2516 
Q 3050 2419 3304 2112 
Q 3559 1806 3559 1356 
Q 3559 666 3084 287 
Q 2609 -91 1734 -91 
Q 1441 -91 1130 -33 
Q 819 25 488 141 
L 488 750 
Q 750 597 1062 519 
Q 1375 441 1716 441 
Q 2309 441 2620 675 
Q 2931 909 2931 1356 
Q 2931 1769 2642 2001 
Q 2353 2234 1838 2234 
L 1294 2234 
L 1294 2753 
L 1863 2753 
Q 2328 2753 2575 2939 
Q 2822 3125 2822 3475 
Q 2822 3834 2567 4026 
Q 2313 4219 1838 4219 
Q 1578 4219 1281 4162 
Q 984 4106 628 3988 
L 628 4550 
Q 988 4650 1302 4700 
Q 1616 4750 1894 4750 
Q 2613 4750 3031 4423 
Q 3450 4097 3450 3541 
Q 3450 3153 3228 2886 
Q 3006 2619 2597 2516 
z
" transform="scale(0.015625)"/>
     </defs>
     <use xlink:href="#DejaVuSans-Oblique-58" transform="translate(0 0.09375)"/>
     <use xlink:href="#DejaVuSans-33" transform="translate(68.505859 -16.3125) scale(0.7)"/>
     <use xlink:href="#DejaVuSans-3c" transform="translate(135.258789 0.09375)"/>
     <use xlink:href="#DejaVuSans-2212" transform="translate(238.530273 0.09375)"/>
     <use xlink:href="#DejaVuSans-35" transform="translate(322.319336 0.09375)"/>
     <use xlink:href="#DejaVuSans-35" transform="translate(385.942383 0.09375)"/>
     <use xlink:href="#DejaVuSans-2e" transform="translate(449.56543 0.09375)"/>
     <use xlink:href="#DejaVuSans-35" transform="translate(481.352539 0.09375)"/>
    </g>
   </g>
   <g id="patch_8">
    <path d="M 213.529176 302.449599 
Q 217.677082 299.903856 222.777868 296.773289 
" style="fill: none; stroke: #000000; stroke-linecap: round"/>
    <path d="M 217.093411 302.13939 
L 213.529176 302.449599 
L 215.41955 299.412086 
" style="fill: none; stroke: #000000; stroke-linecap: round"/>
   </g>
   <g id="text_4">
    <g id="patch_9">
     <path d="M 175.48 318.69365 
L 219.08 318.69365 
Q 221.48 318.69365 221.48 316.29365 
L 221.48 308.55115 
Q 221.48 306.15115 219.08 306.15115 
L 175.48 306.15115 
Q 173.08 306.15115 173.08 308.55115 
L 173.08 316.29365 
Q 173.08 318.69365 175.48 318.69365 
z
" style="fill: #ffffff; stroke: #000000; stroke-linejoin: miter"/>
    </g>
    <!-- $X_2 &lt; -55.5$ -->
    <g transform="translate(175.48 314.6299) scale(0.08 -0.08)">
     <defs>
      <path id="DejaVuSans-32" d="M 1228 531 
L 3431 531 
L 3431 0 
L 469 0 
L 469 531 
Q 828 903 1448 1529 
Q 2069 2156 2228 2338 
Q 2531 2678 2651 2914 
Q 2772 3150 2772 3378 
Q 2772 3750 2511 3984 
Q 2250 4219 1831 4219 
Q 1534 4219 1204 4116 
Q 875 4013 500 3803 
L 500 4441 
Q 881 4594 1212 4672 
Q 1544 4750 1819 4750 
Q 2544 4750 2975 4387 
Q 3406 4025 3406 3419 
Q 3406 3131 3298 2873 
Q 3191 2616 2906 2266 
Q 2828 2175 2409 1742 
Q 1991 1309 1228 531 
z
" transform="scale(0.015625)"/>
     </defs>
     <use xlink:href="#DejaVuSans-Oblique-58" transform="translate(0 0.09375)"/>
     <use xlink:href="#DejaVuSans-32" transform="translate(68.505859 -16.3125) scale(0.7)"/>
     <use xlink:href="#DejaVuSans-3c" transform="translate(135.258789 0.09375)"/>
     <use xlink:href="#DejaVuSans-2212" transform="translate(238.530273 0.09375)"/>
     <use xlink:href="#DejaVuSans-35" transform="translate(322.319336 0.09375)"/>
     <use xlink:href="#DejaVuSans-35" transform="translate(385.942383 0.09375)"/>
     <use xlink:href="#DejaVuSans-2e" transform="translate(449.56543 0.09375)"/>
     <use xlink:href="#DejaVuSans-35" transform="translate(481.352539 0.09375)"/>
    </g>
   </g>
   <g id="patch_10">
    <path d="M 240.550824 302.449599 
Q 236.402918 299.903856 231.302132 296.773289 
" style="fill: none; stroke: #000000; stroke-linecap: round"/>
    <path d="M 238.66045 299.412086 
L 240.550824 302.449599 
L 236.986589 302.13939 
" style="fill: none; stroke: #000000; stroke-linecap: round"/>
   </g>
   <g id="text_5">
    <g id="patch_11">
     <path d="M 235 318.69365 
L 278.6 318.69365 
Q 281 318.69365 281 316.29365 
L 281 308.55115 
Q 281 306.15115 278.6 306.15115 
L 235 306.15115 
Q 232.6 306.15115 232.6 308.55115 
L 232.6 316.29365 
Q 232.6 318.69365 235 318.69365 
z
" style="fill: #ffffff; stroke: #000000; stroke-linejoin: miter"/>
    </g>
    <!-- $X_1 &lt; -50.5$ -->
    <g transform="translate(235 314.6299) scale(0.08 -0.08)">
     <defs>
      <path id="DejaVuSans-31" d="M 794 531 
L 1825 531 
L 1825 4091 
L 703 3866 
L 703 4441 
L 1819 4666 
L 2450 4666 
L 2450 531 
L 3481 531 
L 3481 0 
L 794 0 
L 794 531 
z
" transform="scale(0.015625)"/>
     </defs>
     <use xlink:href="#DejaVuSans-Oblique-58" transform="translate(0 0.78125)"/>
     <use xlink:href="#DejaVuSans-31" transform="translate(68.505859 -15.625) scale(0.7)"/>
     <use xlink:href="#DejaVuSans-3c" transform="translate(135.258789 0.78125)"/>
     <use xlink:href="#DejaVuSans-2212" transform="translate(238.530273 0.78125)"/>
     <use xlink:href="#DejaVuSans-35" transform="translate(322.319336 0.78125)"/>
     <use xlink:href="#DejaVuSans-30" transform="translate(385.942383 0.78125)"/>
     <use xlink:href="#DejaVuSans-2e" transform="translate(449.56543 0.78125)"/>
     <use xlink:href="#DejaVuSans-35" transform="translate(481.352539 0.78125)"/>
    </g>
   </g>
   <g id="patch_12">
    <path d="M 318.243377 277.787348 
Q 305.324957 273.823061 291.337698 269.530777 
" style="fill: none; stroke: #000000; stroke-linecap: round"/>
    <path d="M 315.653568 275.31897 
L 318.243377 277.787348 
L 314.714789 278.378168 
" style="fill: none; stroke: #000000; stroke-linecap: round"/>
   </g>
   <g id="text_6">
    <g id="patch_13">
     <path d="M 324.28 292.60085 
L 367.88 292.60085 
Q 370.28 292.60085 370.28 290.20085 
L 370.28 282.45835 
Q 370.28 280.05835 367.88 280.05835 
L 324.28 280.05835 
Q 321.88 280.05835 321.88 282.45835 
L 321.88 290.20085 
Q 321.88 292.60085 324.28 292.60085 
z
" style="fill: #ffffff; stroke: #000000; stroke-linejoin: miter"/>
    </g>
    <!-- $X_4 &lt; -56.5$ -->
    <g transform="translate(324.28 288.5371) scale(0.08 -0.08)">
     <defs>
      <path id="DejaVuSans-36" d="M 2113 2584 
Q 1688 2584 1439 2293 
Q 1191 2003 1191 1497 
Q 1191 994 1439 701 
Q 1688 409 2113 409 
Q 2538 409 2786 701 
Q 3034 994 3034 1497 
Q 3034 2003 2786 2293 
Q 2538 2584 2113 2584 
z
M 3366 4563 
L 3366 3988 
Q 3128 4100 2886 4159 
Q 2644 4219 2406 4219 
Q 1781 4219 1451 3797 
Q 1122 3375 1075 2522 
Q 1259 2794 1537 2939 
Q 1816 3084 2150 3084 
Q 2853 3084 3261 2657 
Q 3669 2231 3669 1497 
Q 3669 778 3244 343 
Q 2819 -91 2113 -91 
Q 1303 -91 875 529 
Q 447 1150 447 2328 
Q 447 3434 972 4092 
Q 1497 4750 2381 4750 
Q 2619 4750 2861 4703 
Q 3103 4656 3366 4563 
z
" transform="scale(0.015625)"/>
     </defs>
     <use xlink:href="#DejaVuSans-Oblique-58" transform="translate(0 0.78125)"/>
     <use xlink:href="#DejaVuSans-34" transform="translate(68.505859 -15.625) scale(0.7)"/>
     <use xlink:href="#DejaVuSans-3c" transform="translate(135.258789 0.78125)"/>
     <use xlink:href="#DejaVuSans-2212" transform="translate(238.530273 0.78125)"/>
     <use xlink:href="#DejaVuSans-35" transform="translate(322.319336 0.78125)"/>
     <use xlink:href="#DejaVuSans-36" transform="translate(385.942383 0.78125)"/>
     <use xlink:href="#DejaVuSans-2e" transform="translate(449.56543 0.78125)"/>
     <use xlink:href="#DejaVuSans-35" transform="translate(481.352539 0.78125)"/>
    </g>
   </g>
   <g id="patch_14">
    <path d="M 332.569176 302.449599 
Q 336.717082 299.903856 341.817868 296.773289 
" style="fill: none; stroke: #000000; stroke-linecap: round"/>
    <path d="M 336.133411 302.13939 
L 332.569176 302.449599 
L 334.45955 299.412086 
" style="fill: none; stroke: #000000; stroke-linecap: round"/>
   </g>
   <g id="text_7">
    <g id="patch_15">
     <path d="M 294.52 318.69365 
L 338.12 318.69365 
Q 340.52 318.69365 340.52 316.29365 
L 340.52 308.55115 
Q 340.52 306.15115 338.12 306.15115 
L 294.52 306.15115 
Q 292.12 306.15115 292.12 308.55115 
L 292.12 316.29365 
Q 292.12 318.69365 294.52 318.69365 
z
" style="fill: #ffffff; stroke: #000000; stroke-linejoin: miter"/>
    </g>
    <!-- $X_3 &lt; -58.5$ -->
    <g transform="translate(294.52 314.6299) scale(0.08 -0.08)">
     <defs>
      <path id="DejaVuSans-38" d="M 2034 2216 
Q 1584 2216 1326 1975 
Q 1069 1734 1069 1313 
Q 1069 891 1326 650 
Q 1584 409 2034 409 
Q 2484 409 2743 651 
Q 3003 894 3003 1313 
Q 3003 1734 2745 1975 
Q 2488 2216 2034 2216 
z
M 1403 2484 
Q 997 2584 770 2862 
Q 544 3141 544 3541 
Q 544 4100 942 4425 
Q 1341 4750 2034 4750 
Q 2731 4750 3128 4425 
Q 3525 4100 3525 3541 
Q 3525 3141 3298 2862 
Q 3072 2584 2669 2484 
Q 3125 2378 3379 2068 
Q 3634 1759 3634 1313 
Q 3634 634 3220 271 
Q 2806 -91 2034 -91 
Q 1263 -91 848 271 
Q 434 634 434 1313 
Q 434 1759 690 2068 
Q 947 2378 1403 2484 
z
M 1172 3481 
Q 1172 3119 1398 2916 
Q 1625 2713 2034 2713 
Q 2441 2713 2670 2916 
Q 2900 3119 2900 3481 
Q 2900 3844 2670 4047 
Q 2441 4250 2034 4250 
Q 1625 4250 1398 4047 
Q 1172 3844 1172 3481 
z
" transform="scale(0.015625)"/>
     </defs>
     <use xlink:href="#DejaVuSans-Oblique-58" transform="translate(0 0.78125)"/>
     <use xlink:href="#DejaVuSans-33" transform="translate(68.505859 -15.625) scale(0.7)"/>
     <use xlink:href="#DejaVuSans-3c" transform="translate(135.258789 0.78125)"/>
     <use xlink:href="#DejaVuSans-2212" transform="translate(238.530273 0.78125)"/>
     <use xlink:href="#DejaVuSans-35" transform="translate(322.319336 0.78125)"/>
     <use xlink:href="#DejaVuSans-38" transform="translate(385.942383 0.78125)"/>
     <use xlink:href="#DejaVuSans-2e" transform="translate(449.56543 0.78125)"/>
     <use xlink:href="#DejaVuSans-35" transform="translate(481.352539 0.78125)"/>
    </g>
   </g>
   <g id="patch_16">
    <path d="M 363.990647 305.149955 
Q 357.642891 301.254071 350.342255 296.773364 
" style="fill: none; stroke: #000000; stroke-linecap: round"/>
    <path d="M 362.100273 302.112442 
L 363.990647 305.149955 
L 360.426412 304.839746 
" style="fill: none; stroke: #000000; stroke-linecap: round"/>
   </g>
   <g id="text_8">
    <!-- $X_4$ -->
    <g transform="translate(371.2 314.6299) scale(0.08 -0.08)">
     <use xlink:href="#DejaVuSans-Oblique-58" transform="translate(0 0.09375)"/>
     <use xlink:href="#DejaVuSans-34" transform="translate(68.505859 -16.3125) scale(0.7)"/>
    </g>
   </g>
   <g id="patch_17">
    <path d="M 493.892088 255.518979 
Q 452.768967 249.209233 410.540744 242.729925 
" style="fill: none; stroke: #000000; stroke-linecap: round"/>
    <path d="M 490.971761 253.452173 
L 493.892088 255.518979 
L 490.486447 256.615157 
" style="fill: none; stroke: #000000; stroke-linecap: round"/>
   </g>
   <g id="text_9">
    <g id="patch_18">
     <path d="M 502.84 266.50805 
L 546.44 266.50805 
Q 548.84 266.50805 548.84 264.10805 
L 548.84 256.36555 
Q 548.84 253.96555 546.44 253.96555 
L 502.84 253.96555 
Q 500.44 253.96555 500.44 256.36555 
L 500.44 264.10805 
Q 500.44 266.50805 502.84 266.50805 
z
" style="fill: #ffffff; stroke: #000000; stroke-linejoin: miter"/>
    </g>
    <!-- $X_0 &lt; -44.5$ -->
    <g transform="translate(502.84 262.4443) scale(0.08 -0.08)">
     <use xlink:href="#DejaVuSans-Oblique-58" transform="translate(0 0.09375)"/>
     <use xlink:href="#DejaVuSans-30" transform="translate(68.505859 -16.3125) scale(0.7)"/>
     <use xlink:href="#DejaVuSans-3c" transform="translate(135.258789 0.09375)"/>
     <use xlink:href="#DejaVuSans-2212" transform="translate(238.530273 0.09375)"/>
     <use xlink:href="#DejaVuSans-34" transform="translate(322.319336 0.09375)"/>
     <use xlink:href="#DejaVuSans-34" transform="translate(385.942383 0.09375)"/>
     <use xlink:href="#DejaVuSans-2e" transform="translate(449.56543 0.09375)"/>
     <use xlink:href="#DejaVuSans-35" transform="translate(481.352539 0.09375)"/>
    </g>
   </g>
   <g id="patch_19">
    <path d="M 492.956623 277.787348 
Q 505.875043 273.823061 519.862302 269.530777 
" style="fill: none; stroke: #000000; stroke-linecap: round"/>
    <path d="M 496.485211 278.378168 
L 492.956623 277.787348 
L 495.546432 275.31897 
" style="fill: none; stroke: #000000; stroke-linecap: round"/>
   </g>
   <g id="text_10">
    <g id="patch_20">
     <path d="M 443.32 292.60085 
L 486.92 292.60085 
Q 489.32 292.60085 489.32 290.20085 
L 489.32 282.45835 
Q 489.32 280.05835 486.92 280.05835 
L 443.32 280.05835 
Q 440.92 280.05835 440.92 282.45835 
L 440.92 290.20085 
Q 440.92 292.60085 443.32 292.60085 
z
" style="fill: #ffffff; stroke: #000000; stroke-linejoin: miter"/>
    </g>
    <!-- $X_4 &lt; -70.5$ -->
    <g transform="translate(443.32 288.5371) scale(0.08 -0.08)">
     <defs>
      <path id="DejaVuSans-37" d="M 525 4666 
L 3525 4666 
L 3525 4397 
L 1831 0 
L 1172 0 
L 2766 4134 
L 525 4134 
L 525 4666 
z
" transform="scale(0.015625)"/>
     </defs>
     <use xlink:href="#DejaVuSans-Oblique-58" transform="translate(0 0.78125)"/>
     <use xlink:href="#DejaVuSans-34" transform="translate(68.505859 -15.625) scale(0.7)"/>
     <use xlink:href="#DejaVuSans-3c" transform="translate(135.258789 0.78125)"/>
     <use xlink:href="#DejaVuSans-2212" transform="translate(238.530273 0.78125)"/>
     <use xlink:href="#DejaVuSans-37" transform="translate(322.319336 0.78125)"/>
     <use xlink:href="#DejaVuSans-30" transform="translate(385.942383 0.78125)"/>
     <use xlink:href="#DejaVuSans-2e" transform="translate(449.56543 0.78125)"/>
     <use xlink:href="#DejaVuSans-35" transform="translate(481.352539 0.78125)"/>
    </g>
   </g>
   <g id="patch_21">
    <path d="M 451.609176 302.449599 
Q 455.757082 299.903856 460.857868 296.773289 
" style="fill: none; stroke: #000000; stroke-linecap: round"/>
    <path d="M 455.173411 302.13939 
L 451.609176 302.449599 
L 453.49955 299.412086 
" style="fill: none; stroke: #000000; stroke-linecap: round"/>
   </g>
   <g id="text_11">
    <g id="patch_22">
     <path d="M 413.56 318.69365 
L 457.16 318.69365 
Q 459.56 318.69365 459.56 316.29365 
L 459.56 308.55115 
Q 459.56 306.15115 457.16 306.15115 
L 413.56 306.15115 
Q 411.16 306.15115 411.16 308.55115 
L 411.16 316.29365 
Q 411.16 318.69365 413.56 318.69365 
z
" style="fill: #ffffff; stroke: #000000; stroke-linejoin: miter"/>
    </g>
    <!-- $X_3 &lt; -48.5$ -->
    <g transform="translate(413.56 314.6299) scale(0.08 -0.08)">
     <use xlink:href="#DejaVuSans-Oblique-58" transform="translate(0 0.78125)"/>
     <use xlink:href="#DejaVuSans-33" transform="translate(68.505859 -15.625) scale(0.7)"/>
     <use xlink:href="#DejaVuSans-3c" transform="translate(135.258789 0.78125)"/>
     <use xlink:href="#DejaVuSans-2212" transform="translate(238.530273 0.78125)"/>
     <use xlink:href="#DejaVuSans-34" transform="translate(322.319336 0.78125)"/>
     <use xlink:href="#DejaVuSans-38" transform="translate(385.942383 0.78125)"/>
     <use xlink:href="#DejaVuSans-2e" transform="translate(449.56543 0.78125)"/>
     <use xlink:href="#DejaVuSans-35" transform="translate(481.352539 0.78125)"/>
    </g>
   </g>
   <g id="patch_23">
    <path d="M 478.630824 302.449599 
Q 474.482918 299.903856 469.382132 296.773289 
" style="fill: none; stroke: #000000; stroke-linecap: round"/>
    <path d="M 476.74045 299.412086 
L 478.630824 302.449599 
L 475.066589 302.13939 
" style="fill: none; stroke: #000000; stroke-linecap: round"/>
   </g>
   <g id="text_12">
    <g id="patch_24">
     <path d="M 473.08 318.69365 
L 516.68 318.69365 
Q 519.08 318.69365 519.08 316.29365 
L 519.08 308.55115 
Q 519.08 306.15115 516.68 306.15115 
L 473.08 306.15115 
Q 470.68 306.15115 470.68 308.55115 
L 470.68 316.29365 
Q 470.68 318.69365 473.08 318.69365 
z
" style="fill: #ffffff; stroke: #000000; stroke-linejoin: miter"/>
    </g>
    <!-- $X_3 &lt; -39.5$ -->
    <g transform="translate(473.08 314.6299) scale(0.08 -0.08)">
     <use xlink:href="#DejaVuSans-Oblique-58" transform="translate(0 0.78125)"/>
     <use xlink:href="#DejaVuSans-33" transform="translate(68.505859 -15.625) scale(0.7)"/>
     <use xlink:href="#DejaVuSans-3c" transform="translate(135.258789 0.78125)"/>
     <use xlink:href="#DejaVuSans-2212" transform="translate(238.530273 0.78125)"/>
     <use xlink:href="#DejaVuSans-33" transform="translate(322.319336 0.78125)"/>
     <use xlink:href="#DejaVuSans-39" transform="translate(385.942383 0.78125)"/>
     <use xlink:href="#DejaVuSans-2e" transform="translate(449.56543 0.78125)"/>
     <use xlink:href="#DejaVuSans-35" transform="translate(481.352539 0.78125)"/>
    </g>
   </g>
   <g id="patch_25">
    <path d="M 556.323377 277.787348 
Q 543.404957 273.823061 529.417698 269.530777 
" style="fill: none; stroke: #000000; stroke-linecap: round"/>
    <path d="M 553.733568 275.31897 
L 556.323377 277.787348 
L 552.794789 278.378168 
" style="fill: none; stroke: #000000; stroke-linecap: round"/>
   </g>
   <g id="text_13">
    <g id="patch_26">
     <path d="M 562.36 292.60085 
L 605.96 292.60085 
Q 608.36 292.60085 608.36 290.20085 
L 608.36 282.45835 
Q 608.36 280.05835 605.96 280.05835 
L 562.36 280.05835 
Q 559.96 280.05835 559.96 282.45835 
L 559.96 290.20085 
Q 559.96 292.60085 562.36 292.60085 
z
" style="fill: #ffffff; stroke: #000000; stroke-linejoin: miter"/>
    </g>
    <!-- $X_3 &lt; -47.5$ -->
    <g transform="translate(562.36 288.5371) scale(0.08 -0.08)">
     <use xlink:href="#DejaVuSans-Oblique-58" transform="translate(0 0.09375)"/>
     <use xlink:href="#DejaVuSans-33" transform="translate(68.505859 -16.3125) scale(0.7)"/>
     <use xlink:href="#DejaVuSans-3c" transform="translate(135.258789 0.09375)"/>
     <use xlink:href="#DejaVuSans-2212" transform="translate(238.530273 0.09375)"/>
     <use xlink:href="#DejaVuSans-34" transform="translate(322.319336 0.09375)"/>
     <use xlink:href="#DejaVuSans-37" transform="translate(385.942383 0.09375)"/>
     <use xlink:href="#DejaVuSans-2e" transform="translate(449.56543 0.09375)"/>
     <use xlink:href="#DejaVuSans-35" transform="translate(481.352539 0.09375)"/>
    </g>
   </g>
   <g id="patch_27">
    <path d="M 570.649176 302.449599 
Q 574.797082 299.903856 579.897868 296.773289 
" style="fill: none; stroke: #000000; stroke-linecap: round"/>
    <path d="M 574.213411 302.13939 
L 570.649176 302.449599 
L 572.53955 299.412086 
" style="fill: none; stroke: #000000; stroke-linecap: round"/>
   </g>
   <g id="text_14">
    <g id="patch_28">
     <path d="M 532.6 318.69365 
L 576.2 318.69365 
Q 578.6 318.69365 578.6 316.29365 
L 578.6 308.55115 
Q 578.6 306.15115 576.2 306.15115 
L 532.6 306.15115 
Q 530.2 306.15115 530.2 308.55115 
L 530.2 316.29365 
Q 530.2 318.69365 532.6 318.69365 
z
" style="fill: #ffffff; stroke: #000000; stroke-linejoin: miter"/>
    </g>
    <!-- $X_0 &lt; -42.5$ -->
    <g transform="translate(532.6 314.6299) scale(0.08 -0.08)">
     <use xlink:href="#DejaVuSans-Oblique-58" transform="translate(0 0.78125)"/>
     <use xlink:href="#DejaVuSans-30" transform="translate(68.505859 -15.625) scale(0.7)"/>
     <use xlink:href="#DejaVuSans-3c" transform="translate(135.258789 0.78125)"/>
     <use xlink:href="#DejaVuSans-2212" transform="translate(238.530273 0.78125)"/>
     <use xlink:href="#DejaVuSans-34" transform="translate(322.319336 0.78125)"/>
     <use xlink:href="#DejaVuSans-32" transform="translate(385.942383 0.78125)"/>
     <use xlink:href="#DejaVuSans-2e" transform="translate(449.56543 0.78125)"/>
     <use xlink:href="#DejaVuSans-35" transform="translate(481.352539 0.78125)"/>
    </g>
   </g>
   <g id="patch_29">
    <path d="M 602.070647 305.149955 
Q 595.722891 301.254071 588.422255 296.773364 
" style="fill: none; stroke: #000000; stroke-linecap: round"/>
    <path d="M 600.180273 302.112442 
L 602.070647 305.149955 
L 598.506412 304.839746 
" style="fill: none; stroke: #000000; stroke-linecap: round"/>
   </g>
   <g id="text_15">
    <!-- $X_2$ -->
    <g transform="translate(609.28 314.6299) scale(0.08 -0.08)">
     <use xlink:href="#DejaVuSans-Oblique-58" transform="translate(0 0.09375)"/>
     <use xlink:href="#DejaVuSans-32" transform="translate(68.505859 -16.3125) scale(0.7)"/>
    </g>
   </g>
  </g>
 </g>
 <defs>
  <clipPath id="pf5c062417e">
   <rect x="108" y="103.68" width="669.6" height="652.32"/>
  </clipPath>
 </defs>
</svg>
