<?xml version="1.0" encoding="utf-8" standalone="no"?>
<!DOCTYPE svg PUBLIC "-//W3C//DTD SVG 1.1//EN"
  "http://www.w3.org/Graphics/SVG/1.1/DTD/svg11.dtd">
<svg xmlns:xlink="http://www.w3.org/1999/xlink" width="864pt" height="432pt" viewBox="0 0 864 432" xmlns="http://www.w3.org/2000/svg" version="1.1">
 <metadata>
  <rdf:RDF xmlns:dc="http://purl.org/dc/elements/1.1/" xmlns:cc="http://creativecommons.org/ns#" xmlns:rdf="http://www.w3.org/1999/02/22-rdf-syntax-ns#">
   <cc:Work>
    <dc:type rdf:resource="http://purl.org/dc/dcmitype/StillImage"/>
    <dc:date>2023-10-28T22:23:02.245792</dc:date>
    <dc:format>image/svg+xml</dc:format>
    <dc:creator>
     <cc:Agent>
      <dc:title>Matplotlib v3.7.2, https://matplotlib.org/</dc:title>
     </cc:Agent>
    </dc:creator>
   </cc:Work>
  </rdf:RDF>
 </metadata>
 <defs>
  <style type="text/css">*{stroke-linejoin: round; stroke-linecap: butt}</style>
 </defs>
 <g id="figure_1">
  <g id="patch_1">
   <path d="M 0 432 
L 864 432 
L 864 0 
L 0 0 
z
" style="fill: #ffffff"/>
  </g>
  <g id="axes_1">
   <g id="PathCollection_1">
    <defs>
     <path id="m7eaefecd44" d="M 0 7.071068 
C 1.875269 7.071068 3.673985 6.326016 5 5 
C 6.326016 3.673985 7.071068 1.875269 7.071068 0 
C 7.071068 -1.875269 6.326016 -3.673985 5 -5 
C 3.673985 -6.326016 1.875269 -7.071068 0 -7.071068 
C -1.875269 -7.071068 -3.673985 -6.326016 -5 -5 
C -6.326016 -3.673985 -7.071068 -1.875269 -7.071068 0 
C -7.071068 1.875269 -6.326016 3.673985 -5 5 
C -3.673985 6.326016 -1.875269 7.071068 0 7.071068 
z
" style="stroke: #008000; stroke-opacity: 0.5"/>
    </defs>
    <g clip-path="url(#p8b1d86981e)">
     <use xlink:href="#m7eaefecd44" x="356" y="296.46" style="fill: #008000; fill-opacity: 0.5; stroke: #008000; stroke-opacity: 0.5"/>
    </g>
   </g>
   <g id="PathCollection_2">
    <g clip-path="url(#p8b1d86981e)">
     <use xlink:href="#m7eaefecd44" x="752.8" y="296.46" style="fill: #008000; fill-opacity: 0.5; stroke: #008000; stroke-opacity: 0.5"/>
    </g>
   </g>
   <g id="patch_2">
    <path d="M 405.6 59.730472 
Q 405.6 59.303219 405.6 59.994 
" style="fill: none; stroke: #000000; stroke-linecap: round"/>
    <path d="M 404 62.930472 
L 405.6 59.730472 
L 407.2 62.930472 
" style="fill: none; stroke: #000000; stroke-linecap: round"/>
   </g>
   <g id="text_1">
    <g id="patch_3">
     <path d="M 383.8 58.11125 
L 427.4 58.11125 
Q 429.8 58.11125 429.8 55.71125 
L 429.8 47.96875 
Q 429.8 45.56875 427.4 45.56875 
L 383.8 45.56875 
Q 381.4 45.56875 381.4 47.96875 
L 381.4 55.71125 
Q 381.4 58.11125 383.8 58.11125 
z
" style="fill: #ffffff; stroke: #000000; stroke-linejoin: miter"/>
    </g>
    <!-- $X_0 &lt; -54.5$ -->
    <g transform="translate(383.8 54.0475) scale(0.08 -0.08)">
     <defs>
      <path id="DejaVuSans-Oblique-58" d="M 878 4666 
L 1516 4666 
L 2316 2981 
L 3763 4666 
L 4500 4666 
L 2578 2438 
L 3738 0 
L 3103 0 
L 2163 1966 
L 459 0 
L -275 0 
L 1906 2509 
L 878 4666 
z
" transform="scale(0.015625)"/>
      <path id="DejaVuSans-30" d="M 2034 4250 
Q 1547 4250 1301 3770 
Q 1056 3291 1056 2328 
Q 1056 1369 1301 889 
Q 1547 409 2034 409 
Q 2525 409 2770 889 
Q 3016 1369 3016 2328 
Q 3016 3291 2770 3770 
Q 2525 4250 2034 4250 
z
M 2034 4750 
Q 2819 4750 3233 4129 
Q 3647 3509 3647 2328 
Q 3647 1150 3233 529 
Q 2819 -91 2034 -91 
Q 1250 -91 836 529 
Q 422 1150 422 2328 
Q 422 3509 836 4129 
Q 1250 4750 2034 4750 
z
" transform="scale(0.015625)"/>
      <path id="DejaVuSans-3c" d="M 4684 3150 
L 1459 2003 
L 4684 863 
L 4684 294 
L 678 1747 
L 678 2266 
L 4684 3719 
L 4684 3150 
z
" transform="scale(0.015625)"/>
      <path id="DejaVuSans-2212" d="M 678 2272 
L 4684 2272 
L 4684 1741 
L 678 1741 
L 678 2272 
z
" transform="scale(0.015625)"/>
      <path id="DejaVuSans-35" d="M 691 4666 
L 3169 4666 
L 3169 4134 
L 1269 4134 
L 1269 2991 
Q 1406 3038 1543 3061 
Q 1681 3084 1819 3084 
Q 2600 3084 3056 2656 
Q 3513 2228 3513 1497 
Q 3513 744 3044 326 
Q 2575 -91 1722 -91 
Q 1428 -91 1123 -41 
Q 819 9 494 109 
L 494 744 
Q 775 591 1075 516 
Q 1375 441 1709 441 
Q 2250 441 2565 725 
Q 2881 1009 2881 1497 
Q 2881 1984 2565 2268 
Q 2250 2553 1709 2553 
Q 1456 2553 1204 2497 
Q 953 2441 691 2322 
L 691 4666 
z
" transform="scale(0.015625)"/>
      <path id="DejaVuSans-34" d="M 2419 4116 
L 825 1625 
L 2419 1625 
L 2419 4116 
z
M 2253 4666 
L 3047 4666 
L 3047 1625 
L 3713 1625 
L 3713 1100 
L 3047 1100 
L 3047 0 
L 2419 0 
L 2419 1100 
L 313 1100 
L 313 1709 
L 2253 4666 
z
" transform="scale(0.015625)"/>
      <path id="DejaVuSans-2e" d="M 684 794 
L 1344 794 
L 1344 0 
L 684 0 
L 684 794 
z
" transform="scale(0.015625)"/>
     </defs>
     <use xlink:href="#DejaVuSans-Oblique-58" transform="translate(0 0.09375)"/>
     <use xlink:href="#DejaVuSans-30" transform="translate(68.505859 -16.3125) scale(0.7)"/>
     <use xlink:href="#DejaVuSans-3c" transform="translate(135.258789 0.09375)"/>
     <use xlink:href="#DejaVuSans-2212" transform="translate(238.530273 0.09375)"/>
     <use xlink:href="#DejaVuSans-35" transform="translate(322.319336 0.09375)"/>
     <use xlink:href="#DejaVuSans-34" transform="translate(385.942383 0.09375)"/>
     <use xlink:href="#DejaVuSans-2e" transform="translate(449.56543 0.09375)"/>
     <use xlink:href="#DejaVuSans-35" transform="translate(481.352539 0.09375)"/>
    </g>
   </g>
   <g id="patch_4">
    <path d="M 231.245802 124.48572 
Q 315.552707 93.301513 400.908211 61.729442 
" style="fill: none; stroke: #000000; stroke-linecap: round"/>
    <path d="M 234.802136 124.876217 
L 231.245802 124.48572 
L 233.692 121.874951 
" style="fill: none; stroke: #000000; stroke-linecap: round"/>
   </g>
   <g id="text_2">
    <g id="patch_5">
     <path d="M 185.6 139.65125 
L 228.8 139.65125 
Q 231.2 139.65125 231.2 137.25125 
L 231.2 129.50875 
Q 231.2 127.10875 228.8 127.10875 
L 185.6 127.10875 
Q 183.2 127.10875 183.2 129.50875 
L 183.2 137.25125 
Q 183.2 139.65125 185.6 139.65125 
z
" style="fill: #ffffff; stroke: #000000; stroke-linejoin: miter"/>
    </g>
    <!-- $X_4 &lt; -59.5$ -->
    <g transform="translate(185.6 135.5875) scale(0.08 -0.08)">
     <defs>
      <path id="DejaVuSans-39" d="M 703 97 
L 703 672 
Q 941 559 1184 500 
Q 1428 441 1663 441 
Q 2288 441 2617 861 
Q 2947 1281 2994 2138 
Q 2813 1869 2534 1725 
Q 2256 1581 1919 1581 
Q 1219 1581 811 2004 
Q 403 2428 403 3163 
Q 403 3881 828 4315 
Q 1253 4750 1959 4750 
Q 2769 4750 3195 4129 
Q 3622 3509 3622 2328 
Q 3622 1225 3098 567 
Q 2575 -91 1691 -91 
Q 1453 -91 1209 -44 
Q 966 3 703 97 
z
M 1959 2075 
Q 2384 2075 2632 2365 
Q 2881 2656 2881 3163 
Q 2881 3666 2632 3958 
Q 2384 4250 1959 4250 
Q 1534 4250 1286 3958 
Q 1038 3666 1038 3163 
Q 1038 2656 1286 2365 
Q 1534 2075 1959 2075 
z
" transform="scale(0.015625)"/>
     </defs>
     <use xlink:href="#DejaVuSans-Oblique-58" transform="translate(0 0.78125)"/>
     <use xlink:href="#DejaVuSans-34" transform="translate(68.505859 -15.625) scale(0.7)"/>
     <use xlink:href="#DejaVuSans-3c" transform="translate(135.258789 0.78125)"/>
     <use xlink:href="#DejaVuSans-2212" transform="translate(238.530273 0.78125)"/>
     <use xlink:href="#DejaVuSans-35" transform="translate(322.319336 0.78125)"/>
     <use xlink:href="#DejaVuSans-39" transform="translate(380.442383 0.78125)"/>
     <use xlink:href="#DejaVuSans-2e" transform="translate(444.06543 0.78125)"/>
     <use xlink:href="#DejaVuSans-35" transform="translate(475.852539 0.78125)"/>
    </g>
   </g>
   <g id="patch_6">
    <path d="M 122.070886 204.510665 
Q 162.176318 174.84154 203.180568 144.507489 
" style="fill: none; stroke: #000000; stroke-linecap: round"/>
    <path d="M 125.595017 203.89382 
L 122.070886 204.510665 
L 123.691888 201.321253 
" style="fill: none; stroke: #000000; stroke-linecap: round"/>
   </g>
   <g id="text_3">
    <g id="patch_7">
     <path d="M 86.2 221.19125 
L 129.8 221.19125 
Q 132.2 221.19125 132.2 218.79125 
L 132.2 211.04875 
Q 132.2 208.64875 129.8 208.64875 
L 86.2 208.64875 
Q 83.8 208.64875 83.8 211.04875 
L 83.8 218.79125 
Q 83.8 221.19125 86.2 221.19125 
z
" style="fill: #ffffff; stroke: #000000; stroke-linejoin: miter"/>
    </g>
    <!-- $X_3 &lt; -55.5$ -->
    <g transform="translate(86.2 217.1275) scale(0.08 -0.08)">
     <defs>
      <path id="DejaVuSans-33" d="M 2597 2516 
Q 3050 2419 3304 2112 
Q 3559 1806 3559 1356 
Q 3559 666 3084 287 
Q 2609 -91 1734 -91 
Q 1441 -91 1130 -33 
Q 819 25 488 141 
L 488 750 
Q 750 597 1062 519 
Q 1375 441 1716 441 
Q 2309 441 2620 675 
Q 2931 909 2931 1356 
Q 2931 1769 2642 2001 
Q 2353 2234 1838 2234 
L 1294 2234 
L 1294 2753 
L 1863 2753 
Q 2328 2753 2575 2939 
Q 2822 3125 2822 3475 
Q 2822 3834 2567 4026 
Q 2313 4219 1838 4219 
Q 1578 4219 1281 4162 
Q 984 4106 628 3988 
L 628 4550 
Q 988 4650 1302 4700 
Q 1616 4750 1894 4750 
Q 2613 4750 3031 4423 
Q 3450 4097 3450 3541 
Q 3450 3153 3228 2886 
Q 3006 2619 2597 2516 
z
" transform="scale(0.015625)"/>
     </defs>
     <use xlink:href="#DejaVuSans-Oblique-58" transform="translate(0 0.09375)"/>
     <use xlink:href="#DejaVuSans-33" transform="translate(68.505859 -16.3125) scale(0.7)"/>
     <use xlink:href="#DejaVuSans-3c" transform="translate(135.258789 0.09375)"/>
     <use xlink:href="#DejaVuSans-2212" transform="translate(238.530273 0.09375)"/>
     <use xlink:href="#DejaVuSans-35" transform="translate(322.319336 0.09375)"/>
     <use xlink:href="#DejaVuSans-35" transform="translate(385.942383 0.09375)"/>
     <use xlink:href="#DejaVuSans-2e" transform="translate(449.56543 0.09375)"/>
     <use xlink:href="#DejaVuSans-35" transform="translate(481.352539 0.09375)"/>
    </g>
   </g>
   <g id="patch_8">
    <path d="M 66.402169 284.620339 
Q 85.487373 256.382702 105.198646 227.218761 
" style="fill: none; stroke: #000000; stroke-linecap: round"/>
    <path d="M 69.519699 282.86506 
L 66.402169 284.620339 
L 66.868463 281.073148 
" style="fill: none; stroke: #000000; stroke-linecap: round"/>
   </g>
   <g id="text_4">
    <g id="patch_9">
     <path d="M 36.6 302.73125 
L 80.2 302.73125 
Q 82.6 302.73125 82.6 300.33125 
L 82.6 292.58875 
Q 82.6 290.18875 80.2 290.18875 
L 36.6 290.18875 
Q 34.2 290.18875 34.2 292.58875 
L 34.2 300.33125 
Q 34.2 302.73125 36.6 302.73125 
z
" style="fill: #ffffff; stroke: #000000; stroke-linejoin: miter"/>
    </g>
    <!-- $X_2 &lt; -55.5$ -->
    <g transform="translate(36.6 298.6675) scale(0.08 -0.08)">
     <defs>
      <path id="DejaVuSans-32" d="M 1228 531 
L 3431 531 
L 3431 0 
L 469 0 
L 469 531 
Q 828 903 1448 1529 
Q 2069 2156 2228 2338 
Q 2531 2678 2651 2914 
Q 2772 3150 2772 3378 
Q 2772 3750 2511 3984 
Q 2250 4219 1831 4219 
Q 1534 4219 1204 4116 
Q 875 4013 500 3803 
L 500 4441 
Q 881 4594 1212 4672 
Q 1544 4750 1819 4750 
Q 2544 4750 2975 4387 
Q 3406 4025 3406 3419 
Q 3406 3131 3298 2873 
Q 3191 2616 2906 2266 
Q 2828 2175 2409 1742 
Q 1991 1309 1228 531 
z
" transform="scale(0.015625)"/>
     </defs>
     <use xlink:href="#DejaVuSans-Oblique-58" transform="translate(0 0.09375)"/>
     <use xlink:href="#DejaVuSans-32" transform="translate(68.505859 -16.3125) scale(0.7)"/>
     <use xlink:href="#DejaVuSans-3c" transform="translate(135.258789 0.09375)"/>
     <use xlink:href="#DejaVuSans-2212" transform="translate(238.530273 0.09375)"/>
     <use xlink:href="#DejaVuSans-35" transform="translate(322.319336 0.09375)"/>
     <use xlink:href="#DejaVuSans-35" transform="translate(385.942383 0.09375)"/>
     <use xlink:href="#DejaVuSans-2e" transform="translate(449.56543 0.09375)"/>
     <use xlink:href="#DejaVuSans-35" transform="translate(481.352539 0.09375)"/>
    </g>
   </g>
   <g id="patch_10">
    <path d="M 149.597831 284.620339 
Q 130.512627 256.382702 110.801354 227.218761 
" style="fill: none; stroke: #000000; stroke-linecap: round"/>
    <path d="M 149.131537 281.073148 
L 149.597831 284.620339 
L 146.480301 282.86506 
" style="fill: none; stroke: #000000; stroke-linecap: round"/>
   </g>
   <g id="text_5">
    <g id="patch_11">
     <path d="M 135.8 302.73125 
L 179.4 302.73125 
Q 181.8 302.73125 181.8 300.33125 
L 181.8 292.58875 
Q 181.8 290.18875 179.4 290.18875 
L 135.8 290.18875 
Q 133.4 290.18875 133.4 292.58875 
L 133.4 300.33125 
Q 133.4 302.73125 135.8 302.73125 
z
" style="fill: #ffffff; stroke: #000000; stroke-linejoin: miter"/>
    </g>
    <!-- $X_1 &lt; -50.5$ -->
    <g transform="translate(135.8 298.6675) scale(0.08 -0.08)">
     <defs>
      <path id="DejaVuSans-31" d="M 794 531 
L 1825 531 
L 1825 4091 
L 703 3866 
L 703 4441 
L 1819 4666 
L 2450 4666 
L 2450 531 
L 3481 531 
L 3481 0 
L 794 0 
L 794 531 
z
" transform="scale(0.015625)"/>
     </defs>
     <use xlink:href="#DejaVuSans-Oblique-58" transform="translate(0 0.78125)"/>
     <use xlink:href="#DejaVuSans-31" transform="translate(68.505859 -15.625) scale(0.7)"/>
     <use xlink:href="#DejaVuSans-3c" transform="translate(135.258789 0.78125)"/>
     <use xlink:href="#DejaVuSans-2212" transform="translate(238.530273 0.78125)"/>
     <use xlink:href="#DejaVuSans-35" transform="translate(322.319336 0.78125)"/>
     <use xlink:href="#DejaVuSans-30" transform="translate(385.942383 0.78125)"/>
     <use xlink:href="#DejaVuSans-2e" transform="translate(449.56543 0.78125)"/>
     <use xlink:href="#DejaVuSans-35" transform="translate(481.352539 0.78125)"/>
    </g>
   </g>
   <g id="patch_12">
    <path d="M 292.329114 204.510665 
Q 252.223682 174.84154 211.219432 144.507489 
" style="fill: none; stroke: #000000; stroke-linecap: round"/>
    <path d="M 290.708112 201.321253 
L 292.329114 204.510665 
L 288.804983 203.89382 
" style="fill: none; stroke: #000000; stroke-linecap: round"/>
   </g>
   <g id="text_6">
    <g id="patch_13">
     <path d="M 284.6 221.19125 
L 328.2 221.19125 
Q 330.6 221.19125 330.6 218.79125 
L 330.6 211.04875 
Q 330.6 208.64875 328.2 208.64875 
L 284.6 208.64875 
Q 282.2 208.64875 282.2 211.04875 
L 282.2 218.79125 
Q 282.2 221.19125 284.6 221.19125 
z
" style="fill: #ffffff; stroke: #000000; stroke-linejoin: miter"/>
    </g>
    <!-- $X_4 &lt; -56.5$ -->
    <g transform="translate(284.6 217.1275) scale(0.08 -0.08)">
     <defs>
      <path id="DejaVuSans-36" d="M 2113 2584 
Q 1688 2584 1439 2293 
Q 1191 2003 1191 1497 
Q 1191 994 1439 701 
Q 1688 409 2113 409 
Q 2538 409 2786 701 
Q 3034 994 3034 1497 
Q 3034 2003 2786 2293 
Q 2538 2584 2113 2584 
z
M 3366 4563 
L 3366 3988 
Q 3128 4100 2886 4159 
Q 2644 4219 2406 4219 
Q 1781 4219 1451 3797 
Q 1122 3375 1075 2522 
Q 1259 2794 1537 2939 
Q 1816 3084 2150 3084 
Q 2853 3084 3261 2657 
Q 3669 2231 3669 1497 
Q 3669 778 3244 343 
Q 2819 -91 2113 -91 
Q 1303 -91 875 529 
Q 447 1150 447 2328 
Q 447 3434 972 4092 
Q 1497 4750 2381 4750 
Q 2619 4750 2861 4703 
Q 3103 4656 3366 4563 
z
" transform="scale(0.015625)"/>
     </defs>
     <use xlink:href="#DejaVuSans-Oblique-58" transform="translate(0 0.78125)"/>
     <use xlink:href="#DejaVuSans-34" transform="translate(68.505859 -15.625) scale(0.7)"/>
     <use xlink:href="#DejaVuSans-3c" transform="translate(135.258789 0.78125)"/>
     <use xlink:href="#DejaVuSans-2212" transform="translate(238.530273 0.78125)"/>
     <use xlink:href="#DejaVuSans-35" transform="translate(322.319336 0.78125)"/>
     <use xlink:href="#DejaVuSans-36" transform="translate(385.942383 0.78125)"/>
     <use xlink:href="#DejaVuSans-2e" transform="translate(449.56543 0.78125)"/>
     <use xlink:href="#DejaVuSans-35" transform="translate(481.352539 0.78125)"/>
    </g>
   </g>
   <g id="patch_14">
    <path d="M 264.802169 284.620339 
Q 283.887373 256.382702 303.598646 227.218761 
" style="fill: none; stroke: #000000; stroke-linecap: round"/>
    <path d="M 267.919699 282.86506 
L 264.802169 284.620339 
L 265.268463 281.073148 
" style="fill: none; stroke: #000000; stroke-linecap: round"/>
   </g>
   <g id="text_7">
    <g id="patch_15">
     <path d="M 235 302.73125 
L 278.6 302.73125 
Q 281 302.73125 281 300.33125 
L 281 292.58875 
Q 281 290.18875 278.6 290.18875 
L 235 290.18875 
Q 232.6 290.18875 232.6 292.58875 
L 232.6 300.33125 
Q 232.6 302.73125 235 302.73125 
z
" style="fill: #ffffff; stroke: #000000; stroke-linejoin: miter"/>
    </g>
    <!-- $X_3 &lt; -58.5$ -->
    <g transform="translate(235 298.6675) scale(0.08 -0.08)">
     <defs>
      <path id="DejaVuSans-38" d="M 2034 2216 
Q 1584 2216 1326 1975 
Q 1069 1734 1069 1313 
Q 1069 891 1326 650 
Q 1584 409 2034 409 
Q 2484 409 2743 651 
Q 3003 894 3003 1313 
Q 3003 1734 2745 1975 
Q 2488 2216 2034 2216 
z
M 1403 2484 
Q 997 2584 770 2862 
Q 544 3141 544 3541 
Q 544 4100 942 4425 
Q 1341 4750 2034 4750 
Q 2731 4750 3128 4425 
Q 3525 4100 3525 3541 
Q 3525 3141 3298 2862 
Q 3072 2584 2669 2484 
Q 3125 2378 3379 2068 
Q 3634 1759 3634 1313 
Q 3634 634 3220 271 
Q 2806 -91 2034 -91 
Q 1263 -91 848 271 
Q 434 634 434 1313 
Q 434 1759 690 2068 
Q 947 2378 1403 2484 
z
M 1172 3481 
Q 1172 3119 1398 2916 
Q 1625 2713 2034 2713 
Q 2441 2713 2670 2916 
Q 2900 3119 2900 3481 
Q 2900 3844 2670 4047 
Q 2441 4250 2034 4250 
Q 1625 4250 1398 4047 
Q 1172 3844 1172 3481 
z
" transform="scale(0.015625)"/>
     </defs>
     <use xlink:href="#DejaVuSans-Oblique-58" transform="translate(0 0.78125)"/>
     <use xlink:href="#DejaVuSans-33" transform="translate(68.505859 -15.625) scale(0.7)"/>
     <use xlink:href="#DejaVuSans-3c" transform="translate(135.258789 0.78125)"/>
     <use xlink:href="#DejaVuSans-2212" transform="translate(238.530273 0.78125)"/>
     <use xlink:href="#DejaVuSans-35" transform="translate(322.319336 0.78125)"/>
     <use xlink:href="#DejaVuSans-38" transform="translate(385.942383 0.78125)"/>
     <use xlink:href="#DejaVuSans-2e" transform="translate(449.56543 0.78125)"/>
     <use xlink:href="#DejaVuSans-35" transform="translate(481.352539 0.78125)"/>
    </g>
   </g>
   <g id="patch_16">
    <path d="M 348.607475 285.522342 
Q 329.216757 256.83268 309.199971 227.216715 
" style="fill: none; stroke: #000000; stroke-linecap: round"/>
    <path d="M 348.14118 281.97515 
L 348.607475 285.522342 
L 345.489945 283.767062 
" style="fill: none; stroke: #000000; stroke-linecap: round"/>
   </g>
   <g id="text_8">
    <!-- $X_4$ -->
    <g transform="translate(351.36 298.6675) scale(0.08 -0.08)">
     <use xlink:href="#DejaVuSans-Oblique-58" transform="translate(0 0.09375)"/>
     <use xlink:href="#DejaVuSans-34" transform="translate(68.505859 -16.3125) scale(0.7)"/>
    </g>
   </g>
   <g id="patch_17">
    <path d="M 579.954198 124.48572 
Q 495.647293 93.301513 410.291789 61.729442 
" style="fill: none; stroke: #000000; stroke-linecap: round"/>
    <path d="M 577.508 121.874951 
L 579.954198 124.48572 
L 576.397864 124.876217 
" style="fill: none; stroke: #000000; stroke-linecap: round"/>
   </g>
   <g id="text_9">
    <g id="patch_18">
     <path d="M 582.2 139.65125 
L 625.8 139.65125 
Q 628.2 139.65125 628.2 137.25125 
L 628.2 129.50875 
Q 628.2 127.10875 625.8 127.10875 
L 582.2 127.10875 
Q 579.8 127.10875 579.8 129.50875 
L 579.8 137.25125 
Q 579.8 139.65125 582.2 139.65125 
z
" style="fill: #ffffff; stroke: #000000; stroke-linejoin: miter"/>
    </g>
    <!-- $X_0 &lt; -44.5$ -->
    <g transform="translate(582.2 135.5875) scale(0.08 -0.08)">
     <use xlink:href="#DejaVuSans-Oblique-58" transform="translate(0 0.09375)"/>
     <use xlink:href="#DejaVuSans-30" transform="translate(68.505859 -16.3125) scale(0.7)"/>
     <use xlink:href="#DejaVuSans-3c" transform="translate(135.258789 0.09375)"/>
     <use xlink:href="#DejaVuSans-2212" transform="translate(238.530273 0.09375)"/>
     <use xlink:href="#DejaVuSans-34" transform="translate(322.319336 0.09375)"/>
     <use xlink:href="#DejaVuSans-34" transform="translate(385.942383 0.09375)"/>
     <use xlink:href="#DejaVuSans-2e" transform="translate(449.56543 0.09375)"/>
     <use xlink:href="#DejaVuSans-35" transform="translate(481.352539 0.09375)"/>
    </g>
   </g>
   <g id="patch_19">
    <path d="M 518.870886 204.510665 
Q 558.976318 174.84154 599.980568 144.507489 
" style="fill: none; stroke: #000000; stroke-linecap: round"/>
    <path d="M 522.395017 203.89382 
L 518.870886 204.510665 
L 520.491888 201.321253 
" style="fill: none; stroke: #000000; stroke-linecap: round"/>
   </g>
   <g id="text_10">
    <g id="patch_20">
     <path d="M 483 221.19125 
L 526.6 221.19125 
Q 529 221.19125 529 218.79125 
L 529 211.04875 
Q 529 208.64875 526.6 208.64875 
L 483 208.64875 
Q 480.6 208.64875 480.6 211.04875 
L 480.6 218.79125 
Q 480.6 221.19125 483 221.19125 
z
" style="fill: #ffffff; stroke: #000000; stroke-linejoin: miter"/>
    </g>
    <!-- $X_4 &lt; -70.5$ -->
    <g transform="translate(483 217.1275) scale(0.08 -0.08)">
     <defs>
      <path id="DejaVuSans-37" d="M 525 4666 
L 3525 4666 
L 3525 4397 
L 1831 0 
L 1172 0 
L 2766 4134 
L 525 4134 
L 525 4666 
z
" transform="scale(0.015625)"/>
     </defs>
     <use xlink:href="#DejaVuSans-Oblique-58" transform="translate(0 0.78125)"/>
     <use xlink:href="#DejaVuSans-34" transform="translate(68.505859 -15.625) scale(0.7)"/>
     <use xlink:href="#DejaVuSans-3c" transform="translate(135.258789 0.78125)"/>
     <use xlink:href="#DejaVuSans-2212" transform="translate(238.530273 0.78125)"/>
     <use xlink:href="#DejaVuSans-37" transform="translate(322.319336 0.78125)"/>
     <use xlink:href="#DejaVuSans-30" transform="translate(385.942383 0.78125)"/>
     <use xlink:href="#DejaVuSans-2e" transform="translate(449.56543 0.78125)"/>
     <use xlink:href="#DejaVuSans-35" transform="translate(481.352539 0.78125)"/>
    </g>
   </g>
   <g id="patch_21">
    <path d="M 463.202169 284.620339 
Q 482.287373 256.382702 501.998646 227.218761 
" style="fill: none; stroke: #000000; stroke-linecap: round"/>
    <path d="M 466.319699 282.86506 
L 463.202169 284.620339 
L 463.668463 281.073148 
" style="fill: none; stroke: #000000; stroke-linecap: round"/>
   </g>
   <g id="text_11">
    <g id="patch_22">
     <path d="M 433.4 302.73125 
L 477 302.73125 
Q 479.4 302.73125 479.4 300.33125 
L 479.4 292.58875 
Q 479.4 290.18875 477 290.18875 
L 433.4 290.18875 
Q 431 290.18875 431 292.58875 
L 431 300.33125 
Q 431 302.73125 433.4 302.73125 
z
" style="fill: #ffffff; stroke: #000000; stroke-linejoin: miter"/>
    </g>
    <!-- $X_3 &lt; -48.5$ -->
    <g transform="translate(433.4 298.6675) scale(0.08 -0.08)">
     <use xlink:href="#DejaVuSans-Oblique-58" transform="translate(0 0.78125)"/>
     <use xlink:href="#DejaVuSans-33" transform="translate(68.505859 -15.625) scale(0.7)"/>
     <use xlink:href="#DejaVuSans-3c" transform="translate(135.258789 0.78125)"/>
     <use xlink:href="#DejaVuSans-2212" transform="translate(238.530273 0.78125)"/>
     <use xlink:href="#DejaVuSans-34" transform="translate(322.319336 0.78125)"/>
     <use xlink:href="#DejaVuSans-38" transform="translate(385.942383 0.78125)"/>
     <use xlink:href="#DejaVuSans-2e" transform="translate(449.56543 0.78125)"/>
     <use xlink:href="#DejaVuSans-35" transform="translate(481.352539 0.78125)"/>
    </g>
   </g>
   <g id="patch_23">
    <path d="M 546.397831 284.620339 
Q 527.312627 256.382702 507.601354 227.218761 
" style="fill: none; stroke: #000000; stroke-linecap: round"/>
    <path d="M 545.931537 281.073148 
L 546.397831 284.620339 
L 543.280301 282.86506 
" style="fill: none; stroke: #000000; stroke-linecap: round"/>
   </g>
   <g id="text_12">
    <g id="patch_24">
     <path d="M 532.6 302.73125 
L 576.2 302.73125 
Q 578.6 302.73125 578.6 300.33125 
L 578.6 292.58875 
Q 578.6 290.18875 576.2 290.18875 
L 532.6 290.18875 
Q 530.2 290.18875 530.2 292.58875 
L 530.2 300.33125 
Q 530.2 302.73125 532.6 302.73125 
z
" style="fill: #ffffff; stroke: #000000; stroke-linejoin: miter"/>
    </g>
    <!-- $X_3 &lt; -39.5$ -->
    <g transform="translate(532.6 298.6675) scale(0.08 -0.08)">
     <use xlink:href="#DejaVuSans-Oblique-58" transform="translate(0 0.78125)"/>
     <use xlink:href="#DejaVuSans-33" transform="translate(68.505859 -15.625) scale(0.7)"/>
     <use xlink:href="#DejaVuSans-3c" transform="translate(135.258789 0.78125)"/>
     <use xlink:href="#DejaVuSans-2212" transform="translate(238.530273 0.78125)"/>
     <use xlink:href="#DejaVuSans-33" transform="translate(322.319336 0.78125)"/>
     <use xlink:href="#DejaVuSans-39" transform="translate(385.942383 0.78125)"/>
     <use xlink:href="#DejaVuSans-2e" transform="translate(449.56543 0.78125)"/>
     <use xlink:href="#DejaVuSans-35" transform="translate(481.352539 0.78125)"/>
    </g>
   </g>
   <g id="patch_25">
    <path d="M 689.129114 204.510665 
Q 649.023682 174.84154 608.019432 144.507489 
" style="fill: none; stroke: #000000; stroke-linecap: round"/>
    <path d="M 687.508112 201.321253 
L 689.129114 204.510665 
L 685.604983 203.89382 
" style="fill: none; stroke: #000000; stroke-linecap: round"/>
   </g>
   <g id="text_13">
    <g id="patch_26">
     <path d="M 681.4 221.19125 
L 725 221.19125 
Q 727.4 221.19125 727.4 218.79125 
L 727.4 211.04875 
Q 727.4 208.64875 725 208.64875 
L 681.4 208.64875 
Q 679 208.64875 679 211.04875 
L 679 218.79125 
Q 679 221.19125 681.4 221.19125 
z
" style="fill: #ffffff; stroke: #000000; stroke-linejoin: miter"/>
    </g>
    <!-- $X_3 &lt; -47.5$ -->
    <g transform="translate(681.4 217.1275) scale(0.08 -0.08)">
     <use xlink:href="#DejaVuSans-Oblique-58" transform="translate(0 0.09375)"/>
     <use xlink:href="#DejaVuSans-33" transform="translate(68.505859 -16.3125) scale(0.7)"/>
     <use xlink:href="#DejaVuSans-3c" transform="translate(135.258789 0.09375)"/>
     <use xlink:href="#DejaVuSans-2212" transform="translate(238.530273 0.09375)"/>
     <use xlink:href="#DejaVuSans-34" transform="translate(322.319336 0.09375)"/>
     <use xlink:href="#DejaVuSans-37" transform="translate(385.942383 0.09375)"/>
     <use xlink:href="#DejaVuSans-2e" transform="translate(449.56543 0.09375)"/>
     <use xlink:href="#DejaVuSans-35" transform="translate(481.352539 0.09375)"/>
    </g>
   </g>
   <g id="patch_27">
    <path d="M 661.602169 284.620339 
Q 680.687373 256.382702 700.398646 227.218761 
" style="fill: none; stroke: #000000; stroke-linecap: round"/>
    <path d="M 664.719699 282.86506 
L 661.602169 284.620339 
L 662.068463 281.073148 
" style="fill: none; stroke: #000000; stroke-linecap: round"/>
   </g>
   <g id="text_14">
    <g id="patch_28">
     <path d="M 631.8 302.73125 
L 675.4 302.73125 
Q 677.8 302.73125 677.8 300.33125 
L 677.8 292.58875 
Q 677.8 290.18875 675.4 290.18875 
L 631.8 290.18875 
Q 629.4 290.18875 629.4 292.58875 
L 629.4 300.33125 
Q 629.4 302.73125 631.8 302.73125 
z
" style="fill: #ffffff; stroke: #000000; stroke-linejoin: miter"/>
    </g>
    <!-- $X_0 &lt; -42.5$ -->
    <g transform="translate(631.8 298.6675) scale(0.08 -0.08)">
     <use xlink:href="#DejaVuSans-Oblique-58" transform="translate(0 0.78125)"/>
     <use xlink:href="#DejaVuSans-30" transform="translate(68.505859 -15.625) scale(0.7)"/>
     <use xlink:href="#DejaVuSans-3c" transform="translate(135.258789 0.78125)"/>
     <use xlink:href="#DejaVuSans-2212" transform="translate(238.530273 0.78125)"/>
     <use xlink:href="#DejaVuSans-34" transform="translate(322.319336 0.78125)"/>
     <use xlink:href="#DejaVuSans-32" transform="translate(385.942383 0.78125)"/>
     <use xlink:href="#DejaVuSans-2e" transform="translate(449.56543 0.78125)"/>
     <use xlink:href="#DejaVuSans-35" transform="translate(481.352539 0.78125)"/>
    </g>
   </g>
   <g id="patch_29">
    <path d="M 745.407475 285.522342 
Q 726.016757 256.83268 705.999971 227.216715 
" style="fill: none; stroke: #000000; stroke-linecap: round"/>
    <path d="M 744.94118 281.97515 
L 745.407475 285.522342 
L 742.289945 283.767062 
" style="fill: none; stroke: #000000; stroke-linecap: round"/>
   </g>
   <g id="text_15">
    <!-- $X_2$ -->
    <g transform="translate(748.16 298.6675) scale(0.08 -0.08)">
     <use xlink:href="#DejaVuSans-Oblique-58" transform="translate(0 0.09375)"/>
     <use xlink:href="#DejaVuSans-32" transform="translate(68.505859 -16.3125) scale(0.7)"/>
    </g>
   </g>
  </g>
 </g>
 <defs>
  <clipPath id="p8b1d86981e">
   <rect x="108" y="51.84" width="669.6" height="326.16"/>
  </clipPath>
 </defs>
</svg>
